
<svg width="80px" height="80px" viewBox="0 0 80 80" version="1.1" xmlns="http://www.w3.org/2000/svg" xmlns:xlink="http://www.w3.org/1999/xlink">
    <g id="页面-1" stroke="none" stroke-width="1" fill="none" fill-rule="evenodd">
        <g id="艺术" fill-rule="nonzero">
            <path d="M39.9999883,0 C17.9085662,0 0,17.9085715 0,40 C0,62.0914287 17.9085662,80 39.9999883,80 C43.8674158,80 46.4479864,78.9188571 46.9645576,75.7394286 C47.1474148,74.6102857 46.9554148,73.6045715 46.5165578,72.4251428 L46.3039864,71.8857143 L45.572558,70.2217143 C44.4822727,67.744 44.3977013,66.6034285 45.3531295,65.3691428 L45.5451295,65.136 L45.764558,64.8982858 L45.8994151,64.7657143 L46.0251293,64.688 C46.4114149,64.4685714 46.8937005,64.3565715 47.5977004,64.3657143 L48.102843,64.3885714 C48.2834144,64.4045714 48.4754143,64.4228571 48.6811286,64.4502857 L49.3439855,64.5485715 L50.0936996,64.6857143 L50.9439851,64.8594286 L51.901699,65.0742857 L52.9759845,65.328 L54.559984,65.7165714 C65.0742666,68.24 71.6571218,66.5257143 76.500549,56.3817143 C78.8116175,51.2298099 80.0043091,45.6465159 79.9999883,40 C79.9999883,17.9085715 62.0914103,0 39.9999883,0 Z M39.9999883,6.85714285 C58.3039829,6.85714285 73.1428357,21.696 73.1428357,40.0000001 C73.1428357,44.72 72.1576931,49.2960001 70.2765508,53.5062857 C67.1496946,60.0548571 63.8879812,60.9051428 56.1736978,59.0514286 L54.4914126,58.64 L53.1542701,58.3222858 L51.9245563,58.0502857 L50.793128,57.824 C46.4502722,57.0171428 44.2468442,57.3668571 41.5817021,59.4308571 L41.3531307,59.6251429 C40.8364558,60.1014768 40.3601582,60.6198232 39.9291311,61.1748572 C37.1519891,64.7634286 37.2822748,68.1577143 39.06056,72.4411429 L39.3622742,73.1337143 L38.5622744,73.1108571 C20.9257082,72.3611429 6.85714084,57.824 6.85714084,40.0000001 C6.85714084,21.696 21.6959936,6.85714285 39.9999883,6.85714285 Z" id="形状" fill="#021408"></path>
            <path d="M55.9999836,38.8571429 C55.9999836,42.0130557 58.5583557,44.5714286 61.7142676,44.5714286 C64.8701796,44.5714286 67.4285517,42.0130557 67.4285517,38.8571429 C67.4285517,35.70123 64.8701796,33.1428571 61.7142676,33.1428571 C58.5583557,33.1428571 55.9999836,35.70123 55.9999836,38.8571429 Z" id="路径" fill="#FFC33E"></path>
            <path d="M46.8571292,20.5714286 C46.8571292,22.6129463 47.9462654,24.4993864 49.7142711,25.5201453 C51.4822768,26.5409042 53.6605496,26.5409042 55.4285552,25.5201453 C57.1965609,24.4993864 58.2856972,22.6129463 58.2856972,20.5714286 C58.2856972,18.5299109 57.1965609,16.6434707 55.4285552,15.6227118 C53.6605496,14.6019529 51.4822768,14.6019529 49.7142711,15.6227118 C47.9462654,16.6434707 46.8571292,18.5299109 46.8571292,20.5714286 L46.8571292,20.5714286 Z" id="路径" fill="#FFC33E"></path>
            <path d="M23.999993,20.5714286 C23.999993,23.7273414 26.5583651,26.2857143 29.714277,26.2857143 C32.8701889,26.2857143 35.4285611,23.7273414 35.4285611,20.5714286 C35.4285611,17.4155157 32.8701889,14.8571428 29.714277,14.8571428 C26.5583651,14.8571428 23.999993,17.4155157 23.999993,20.5714286 L23.999993,20.5714286 Z" id="路径" fill="#FFC33E"></path>
            <path d="M14.8571385,38.8571429 C14.8571385,42.0130557 17.4155106,44.5714286 20.5714226,44.5714286 C23.7273345,44.5714286 26.2857066,42.0130557 26.2857066,38.8571429 C26.2857066,35.70123 23.7273345,33.1428571 20.5714226,33.1428571 C17.4155106,33.1428571 14.8571385,35.70123 14.8571385,38.8571429 Z" id="路径" fill="#FFC33E"></path>
        </g>
    </g>
</svg>