
<svg width="76px" height="69px" viewBox="0 0 76 69" version="1.1" xmlns="http://www.w3.org/2000/svg" xmlns:xlink="http://www.w3.org/1999/xlink">
    <g id="页面-1" stroke="none" stroke-width="1" fill="none" fill-rule="evenodd">
        <g id="闹钟" fill-rule="nonzero">
            <path d="M37.76,68.8 C19.2,68.8 4.08,53.68 4.08,35.12 C4.08,16.48 19.2,1.36 37.76,1.36 C56.32,1.36 71.44,16.48 71.44,35.12 C71.44,53.68 56.32,68.8 37.76,68.8 Z M37.76,6.8 C22.16,6.8 9.44,19.52 9.44,35.12 C9.44,50.72 22.16,63.44 37.76,63.44 C53.36,63.44 66.08,50.72 66.08,35.12 C66.08,19.44 53.36,6.8 37.76,6.8 Z" id="形状" fill="#000000"></path>
            <path d="M49.84,39.12 L38.8,39.12 C36,39.12 33.68,36.8 33.68,34 L33.68,17.52 C33.68,16 34.88,14.8 36.4,14.8 C37.92,14.8 39.12,16 39.12,17.52 L39.12,33.68 L49.92,33.68 C51.44,33.68 52.64,34.88 52.64,36.4 C52.56,37.92 51.36,39.12 49.84,39.12 Z" id="路径" fill="#FFC33E"></path>
            <path d="M4.08,16.24 C3.04,16.24 2,15.84 1.2,15.04 C-0.4,13.44 -0.4,10.88 1.2,9.36 L9.28,1.2 C10.88,-0.4 13.44,-0.4 14.96,1.2 C16.56,2.8 16.56,5.36 14.96,6.88 L6.88,15.04 C6.08,15.84 5.12,16.24 4.08,16.24 Z M71.44,16.24 C70.4,16.24 69.36,15.84 68.56,15.04 L60.48,6.96 C58.88,5.36 58.88,2.8 60.48,1.28 C62.08,-0.32 64.64,-0.32 66.16,1.28 L74.32,9.28 C75.92,10.88 75.92,13.44 74.32,14.96 C73.52,15.84 72.48,16.24 71.44,16.24 L71.44,16.24 Z" id="形状" fill="#FFC33E"></path>
        </g>
    </g>
</svg>