
<svg width="70px" height="69px" viewBox="0 0 70 69" version="1.1" xmlns="http://www.w3.org/2000/svg" xmlns:xlink="http://www.w3.org/1999/xlink">
    <g id="页面-1" stroke="none" stroke-width="1" fill="none" fill-rule="evenodd">
        <g id="加速" transform="translate(0.000000, 0.000000)" fill-rule="nonzero">
            <path d="M49.6322255,26.5276514 C45.6042255,26.5276514 42.3322255,23.2516514 42.3322255,19.2236514 C42.3322255,15.1956514 45.6082255,11.9236514 49.6322255,11.9236514 C53.6602255,11.9236514 56.9362255,15.1996514 56.9362255,19.2236514 C56.9322255,23.2516514 53.6602255,26.5276514 49.6322255,26.5276514 L49.6322255,26.5276514 Z M49.6322255,16.7236514 C48.2522255,16.7236514 47.1322255,17.8476514 47.1322255,19.2236514 C47.1322255,20.6036514 48.2562255,21.7276514 49.6322255,21.7276514 C51.0082255,21.7276514 52.1362255,20.6036514 52.1362255,19.2236514 C52.1322255,17.8476514 51.0122255,16.7236514 49.6322255,16.7236514 Z M10.5282255,65.0276514 C9.23622553,65.0276514 7.85222553,64.8556514 6.38022553,64.4636514 C5.4799639,64.2253158 4.79869817,63.4879275 4.63222553,62.5716514 C2.90822553,53.0956514 9.80822553,47.3876514 13.6962255,45.6956514 C14.9122255,45.1636514 16.3242255,45.7236514 16.8562255,46.9396514 C17.3830293,48.1514529 16.8326928,49.5612435 15.6242255,50.0956514 C15.3242255,50.2316514 8.86822553,53.2076514 9.17622553,60.1396514 C16.1202255,61.0356514 19.0122255,54.8476514 19.3402255,54.0876514 C19.8642255,52.8756514 21.2682255,52.3036514 22.4842255,52.8196514 C23.7000569,53.3335492 24.2721121,54.7332968 23.7642255,55.9516514 C22.3082255,59.4196514 17.8722255,65.0276514 10.5282255,65.0276514 L10.5282255,65.0276514 Z" id="形状" fill="#FFC33E"></path>
            <path d="M69.0082255,1.98765144 C68.7925416,0.949101073 67.9209858,0.175107452 66.8642255,0.0836514379 C65.9242255,-9.32039178e-05 43.7442255,-1.69634856 27.3282255,15.2836514 C25.5802255,17.0916514 24.0522255,18.7596514 22.7082255,20.2996514 L9.46822553,19.7636514 C8.45302012,19.7214969 7.52162431,20.3242591 7.14422553,21.2676514 L0.172225525,38.6556514 C-0.155774475,39.4716514 -0.00777447461,40.4036514 0.552225525,41.0796514 C1.00802984,41.6300041 1.68563106,41.9482713 2.40022553,41.9476514 C2.55222553,41.9476514 2.70822553,41.9316514 2.86422553,41.9036514 L14.4042255,39.6276514 L29.9602255,55.1836514 L27.8042255,66.1076514 C27.6322255,66.9716514 27.9482255,67.8596514 28.6282255,68.4196514 C29.0642255,68.7836514 29.6082255,68.9716514 30.1602255,68.9716514 C30.4602255,68.9716514 30.7642255,68.9156514 31.0522255,68.7996514 L48.4402255,61.8276514 C49.3839383,61.4506422 49.9868667,60.5189896 49.9442255,59.5036514 L49.4122255,46.4316514 C54.0642255,42.4716514 58.7842255,37.2676514 62.1362255,30.6796514 C71.1482255,12.9756514 69.1002255,2.42765144 69.0082255,1.98765144 L69.0082255,1.98765144 Z M10.9642255,24.6276514 L18.8802255,24.9476514 C18.7762255,25.0836514 18.6802255,25.2156514 18.5762255,25.3476514 C18.5722255,25.3516514 18.5722255,25.3556514 18.5682255,25.3596514 C17.9162255,26.2196514 17.3402255,27.0236514 16.8282255,27.7676514 C16.7802255,27.8396514 16.7322255,27.9116514 16.6842255,27.9796514 C16.5922255,28.1116514 16.5042255,28.2436514 16.4162255,28.3756514 C16.3482255,28.4796514 16.2802255,28.5796514 16.2122255,28.6796514 C16.1442255,28.7796514 16.0762255,28.8836514 16.0122255,28.9836514 C15.8842255,29.1836514 15.7602255,29.3756514 15.6402255,29.5636514 L15.5562255,29.6956514 C15.4522255,29.8596514 15.3562255,30.0196514 15.2602255,30.1756514 L15.1882255,30.2956514 C15.0842255,30.4716514 14.9802255,30.6396514 14.8842255,30.8076514 C14.8762255,30.8196514 14.8682255,30.8316514 14.8642255,30.8436514 C13.9602255,32.3916514 13.4122255,33.5476514 13.0362255,34.3516514 C12.9522255,34.5316514 12.8682255,34.7076514 12.7962255,34.8556514 C12.7922255,34.8636514 12.7882255,34.8716514 12.7842255,34.8756514 C12.7482255,34.9436514 12.7202255,35.0076514 12.6882255,35.0636514 L6.26422553,36.3316514 L10.9642255,24.6276514 Z M45.0762255,58.0036514 L33.3642255,62.6996514 L34.7082255,55.8756514 C36.6722255,54.9716514 40.4482255,53.0676514 44.7482255,50.0396514 L45.0762255,58.0036514 Z M57.8602255,28.5036514 C51.0122255,41.9556514 37.3722255,49.2956514 32.9522255,51.3916514 L17.5722255,36.0116514 C17.6562255,35.8316514 17.7482255,35.6436514 17.8482255,35.4396514 L17.8842255,35.3676514 C17.9242255,35.2836514 17.9682255,35.1996514 18.0122255,35.1116514 C18.8722255,33.4156514 20.3562255,30.8356514 23.2642255,27.1356514 C23.3162255,27.0676514 23.3682255,27.0036514 23.4242255,26.9356514 C23.5642255,26.7596514 23.7042255,26.5836514 23.8482255,26.4036514 C24.0642255,26.1396514 24.2842255,25.8676514 24.5122255,25.5916514 C24.5882255,25.4996514 24.6642255,25.4076514 24.7402255,25.3196514 C25.0162255,24.9916514 25.2962255,24.6556514 25.5922255,24.3116514 L25.5962255,24.3076514 C27.0482255,22.6076514 28.7642255,20.7196514 30.7842255,18.6276514 C42.8802255,6.12365144 58.9042255,4.85965144 64.4642255,4.82365144 C64.5442255,8.31965144 63.9242255,16.5876514 57.8602255,28.5036514 L57.8602255,28.5036514 Z" id="形状" fill="#000000"></path>
        </g>
    </g>
</svg>