<?xml version="1.0" encoding="utf-8"?>
<!-- Generator: Adobe Illustrator 25.0.0, SVG Export Plug-In . SVG Version: 6.00 Build 0)  -->
<svg version="1.1" id="illustration" xmlns="http://www.w3.org/2000/svg" xmlns:xlink="http://www.w3.org/1999/xlink" x="0px"
	 y="0px" viewBox="0 0 1600 1200" style="enable-background:new 0 0 1600 1200;" xml:space="preserve">
<style type="text/css">
	.st0{fill:none;stroke:#000000;stroke-miterlimit:10;}
	.st1{opacity:0.07;}
	.st2{fill:#1CD3C1;}
	.st3{fill:#EDD15D;}
	.st4{fill:#3A84FF;}
	.st5{fill:#ABBD43;}
	.st6{fill:#FA6142;}
	.st7{fill:#9E9E9E;stroke:#000000;stroke-miterlimit:10;}
	.st8{fill:#FFFFFF;stroke:#000000;stroke-miterlimit:10;}
	.st9{fill:#39B54A;}
	.st10{fill:none;stroke:#070707;stroke-miterlimit:10;}
	.st11{fill:#F7931E;}
	.st12{fill:#075CDB;}
	.st13{opacity:0.5;fill:#222A2D;}
	.st14{fill:#2E353D;}
	.st15{stroke:#000000;stroke-miterlimit:10;}
	.st16{opacity:0.09;}
	.st17{opacity:0.58;fill:none;stroke:#070707;stroke-miterlimit:10;}
	.st18{fill:none;stroke:#0A0A0A;stroke-miterlimit:10;}
	.st19{fill:#83B5FE;}
	.st20{fill:#C6E4FF;}
	.st21{opacity:0.09;fill:#2E353D;}
	.st22{opacity:0.5;fill:#F7931E;}
	.st23{fill:none;stroke:#000000;stroke-linecap:round;stroke-miterlimit:10;}
	.st24{fill:#FE6666;}
	.st25{fill:none;stroke:#050505;stroke-width:0.75;stroke-miterlimit:10;}
	.st26{fill:#FFFFFF;stroke:#050505;stroke-width:0.75;stroke-miterlimit:10;}
	.st27{fill:none;stroke:#020202;stroke-miterlimit:10;}
	.st28{fill:#FFFFFF;stroke:#020202;stroke-miterlimit:10;}
	.st29{fill:#000033;}
	.st30{fill:#FF6666;}
</style>
<g>
	<g>
		<line class="st0" x1="321" y1="851.31" x2="1406.3" y2="839.87"/>
		<g id="paper_1_">
			<path class="st1" d="M1052.94,683.74l59.18,42.31c0,0,59.02-38.92,75.84-82.99l-62.6-22.36L1052.94,683.74z"/>
			<path class="st2" d="M1052.94,683.74l60.5,36.75c0,0,45.74-32.15,74.52-77.43c0,0-56.81-23.62-64.19-31.5
				C1123.77,611.56,1087.61,657.49,1052.94,683.74z"/>
		</g>
		<g id="icon">
			
				<rect x="968.61" y="379.58" transform="matrix(0.418 -0.9085 0.9085 0.418 215.3276 1118.046)" class="st3" width="23.17" height="22.8"/>
			
				<rect x="957.78" y="405.83" transform="matrix(0.4086 -0.9127 0.9127 0.4086 191.8696 1131.0679)" class="st4" width="21.95" height="23.29"/>
			
				<rect x="994.41" y="390.13" transform="matrix(0.418 -0.9085 0.9085 0.418 220.7614 1147.6233)" class="st5" width="23.17" height="22.8"/>
			
				<rect x="983.56" y="417.83" transform="matrix(0.4086 -0.9127 0.9127 0.4086 196.1597 1161.6902)" class="st6" width="21.95" height="23.29"/>
		</g>
		<g id="w2atch">
			<ellipse class="st7" cx="423.27" cy="348.62" rx="56.32" ry="55.47"/>
			<ellipse class="st8" cx="423.27" cy="348.62" rx="51.15" ry="50.92"/>
			<polyline class="st0" points="404.98,348.62 425.09,357.37 446.95,326.77 			"/>
		</g>
		<g id="tree">
			<g>
				<path class="st0" d="M443.62,801.33c0-2.48-29.33-84.46-41.55-91.08"/>
				<path class="st0" d="M450.95,803.81c0,0-6.52-141.59-24.44-154.01"/>
				<path class="st0" d="M447.29,813.33c0,0,6.81-59.18,33.81-129.58"/>
				<g>
					<path class="st9" d="M427.58,651.1c-14.55-9.74-30.16-19.73-47.58-20.11c-11.42-0.25-22.49,3.72-33.09,8.04
						s-21.2,9.11-32.52,10.65c-11.32,1.54-23.76-0.66-31.98-8.72c10.11,3.04,20.8-2.88,28.41-10.29
						c7.62-7.41,13.7-16.57,22.48-22.51c15.99-10.83,38.02-8.46,54.76,1.13s28.75,26.11,40.12,41.86"/>
				</g>
				<g>
					<path class="st9" d="M481.06,683.7c-0.38-10.93-0.48-22.09,2.72-32.54s10.25-20.22,20.36-23.98
						c11.83-4.39,24.83,0.1,36.89,3.77c12.06,3.67,26.14,6.23,36.43-1.15c-12.12,11.34-27.51,19.03-43.76,21.85
						c4.61,0.3,9.21,0.61,13.82,0.91c-15.45,4.88-30.9,9.77-46.35,14.65c-4.59,1.45-9.26,2.94-13.19,5.74
						c-3.93,2.8-7.08,7.18-7.23,12.06"/>
				</g>
				<path class="st0" d="M426.51,649.8c0,0-25.59-39.97-65.25-33.54"/>
				<path class="st0" d="M481.24,680.62c0,0,9.67-31.5,40.66-38.95"/>
				<path class="st9" d="M403.08,710.39c0,0-22.05-6.46-41.01,11.98c-18.96,18.45-18.46,25.2-29.43,28.06c0,0,22.45,9.77,39.41-5.16
					S396.19,709.89,403.08,710.39z"/>
				<path class="st10" d="M396.44,711.17c0,0-12.77,3.02-19.15,11.59c-6.38,8.57-10.59,13.44-14.28,15.12"/>
			</g>
			<polygon class="st11" points="469.69,849.35 429.77,850.18 407.77,776.49 486.8,776.49 			"/>
		</g>
		<g>
			<path class="st8" d="M1012.41,720c-0.87,1.15-2.45,2.83-4.92,4.09c-0.26,0.13-0.52,0.26-0.8,0.38"/>
			<g id="boy">
				<path d="M920.28,715.14c0,0-14.63,15.85-23.78,17.68l-10.37-31.1C886.14,701.72,920.89,697.46,920.28,715.14z"/>
				<path class="st8" d="M1006.86,724.27c0.28-2.2,1.46-5.94,6.42-4.16l14.79,14.03c1.42,1.34,2.12,3.27,1.91,5.22l-0.01,0.08
					c0,0,21.81-9.95,26.24-8.11c5.51,2.28-2.35,8.81-3.05,9.34c-0.7,0.53,17.57-2.64,14.41,1.23s-46.74,23.19-50.6,24.6
					c0,0-16,6.26-20.04,6.26s-13.73,0-18.57,0c-4.84,0-85.58,29.06-85.58,29.06l-36.33-85.58c0,0,31.06-38.77,53.07-11.71
					l-5.32,52.31l53.19-13.3c0,0,11.53-30.14,19.5-30.14c6.9,0,29.05,3.98,34.91,5.05c0.72,0.13,1.04,0.97,0.59,1.56"/>
				<path class="st8" d="M1006.69,724.47c-1.81,0.79-4.03,1.33-6.74,1.33c-5.94,0-10.24,0.66-12.69,1.17
					c-1.43,0.3-2.42,1.58-2.37,3.04c0.19,5.41,1.59,17.95,10.63,17.95c9.25,0,19.63-5.13,23.38-7.17c0.74-0.4,0.9-1.39,0.32-2
					l-11.99-12.61c-0.3-0.32-0.45-0.74-0.43-1.18c0.01-0.21,0.03-0.47,0.07-0.75"/>
				<line class="st0" x1="1021.15" y1="756.61" x2="1053.17" y2="740.67"/>
				<path class="st12" d="M889.42,784.65l32.36,9.76l-126.14,78.06l-116.36-73.07C679.28,799.41,864.17,765.71,889.42,784.65z"/>
				<path class="st13" d="M697.39,801.82c4.12,3.13,11.21,7.93,20.92,11.5c11.9,4.37,25.91,4.63,53.44,4.96
					c19.22,0.23,28.82,0.35,29.06,0.34c42.07-0.98,91.29-19.01,110.89-26.68c-11.21-4.08-23.12-9.64-36.49-10.43
					C857.45,780.46,702.66,803.32,697.39,801.82z"/>
				<path d="M619.85,709.76c0,0,23.61,27.33,70.56,30.38l1.83-17.07C692.24,723.07,653.56,683.65,619.85,709.76z"/>
				<path class="st8" d="M635.82,702.53l5.9,43.3c0.18,1.31-0.93,2.42-2.24,2.25l-36.07-4.73c-2.34-0.31-4.36-1.77-5.39-3.89
					c-3.87-7.97-13.4-27.2-15.05-27.2c-1.67,0-15.76,1.33-21.36,1.87c-1.48,0.14-2.87,0.78-3.94,1.81l-15.11,14.53
					c-0.62,0.59-0.38,1.62,0.43,1.89c3.09,1.01,9.39,2.66,11.46,0.07c2.78-3.48,12.52-12.52,15.99-7.65
					c3.48,4.87,2.78,17.39,2.78,17.39s-2.09,6.95-6.26,6.95c0,0-66.76-17.39-67.45-13.91s17.67,16.09,30.6,20.17
					c13.41,4.23,40.33,16.69,43.81,15.99c3.48-0.7,20.86-4.17,27.12-4.17c6.26,0,52.85,18.08,52.85,18.08l14.78,1.14
					c1.87,0.14,3.54-1.16,3.85-3.01l9.89-59.32C682.41,724.08,666.42,697.66,635.82,702.53z"/>
				<path class="st8" d="M582.27,754.91l-11.74,1.26c0,0-17.61-17.19-24.74-18.45c-7.13-1.26,3.35,10.48,3.35,10.48
					s-10.06-13.42-16.35-15.09s-9.64-2.1-8.8-0.84c0.84,1.26,19.29,16.77,19.29,16.77s-18.45-18.45-23.48-18.45
					c-5.03,0-7.97,0-6.71,2.1c1.26,2.1,22.22,18.45,22.22,18.45"/>
				<path class="st8" d="M922.35,795.99l-14.6-5.56c-46.6-8.35-155.08,15.29-181.5,20.16c-26.43,4.87-52.16-15.99-52.16-15.99
					l10.58-60.98l0.67-3.88l0.57-3.29c-23.64-36.16-66.06-16.69-66.06-16.69s27.12-134.91,29.21-141.17
					c2.08-6.26,77.19-25.03,77.19-25.03l98.74-2.78l64.68,24.33c19.47,37.56,30.59,147.43,30.59,147.43
					c-2.07-5.8-12.49-7.4-20.61-7.76c-5.53-0.23-9.98,0.11-9.98,0.11l4.41,12.3L922.35,795.99z"/>
				<path class="st8" d="M747.81,492.1l-0.64,40.99c-0.03,2.11-1.39,3.96-3.39,4.63l-16.46,5.49c-0.47,0.16-0.58,0.77-0.2,1.08
					c5.59,4.57,37.16,29.04,62.42,20.84c24.51-7.97,33.36-20.79,35.12-23.73c0.19-0.32,0.05-0.74-0.29-0.89l-19.17-8.39
					c-1.49-0.65-2.48-2.11-2.53-3.73l-1.29-39.95c-0.01-0.29-0.21-0.54-0.5-0.59C795.55,486.83,748.46,478.32,747.81,492.1z"/>
				<path class="st8" d="M735.46,465.88c0,0,8.96,41.98,41.51,39.62c32.55-2.36,39.15-46.23,39.15-46.23s15.53-10.44,9.47-20.58
					c-6.38-5.65-13.25,3.13-13.25,3.13s-4.88-49.88-35.85-62.26c-2.36-0.94-32.08-3.3-39.15,18.4c-7.08,21.7-5.66,49.53-5.66,49.53
					s-8.02-8.49-11.32-1.89C717.07,452.2,724.14,463.05,735.46,465.88z"/>
				<g>
					<path class="st14" d="M749.87,399.16c-7.93,15.25-15.35,31.38-18.18,48.33c-6.72-13.74-11.54-27.1-18.26-40.84
						c-3.69-7.55-7.48-15.43-6.02-24.14c0.76-4.58,3.31-8.76,7.36-11.02c10.89-6.07,23.52,5.94,35.14,3.2
						c0.4-0.09,0.63-0.51,0.52-0.9l-3.72-13.45c-0.03-0.12,0.13-0.2,0.2-0.09c2.53,4.06,8.41,5.26,13.11,3.9
						c5.02-1.46,9.08-5.03,13.24-8.19c5.75-4.36,12.28-8.19,19.48-8.77s15.11,2.86,17.86,9.54c2.07,5.04,1.29,11.59,5.48,15.07
						c3.79,3.15,9.57,1.9,14.13,3.8c4.16,1.74,6.84,6.03,7.66,10.46c0.82,4.43,0.04,9-1.08,13.36c-4.03,15.59-12.6,31.46-24.43,42.4
						c-2.35-8.82-5.46-20.09-13.52-24.37c-4.82-2.55-10.5-2.59-15.9-3.33c-13.1-1.8-25.53-8.22-34.57-17.87"/>
				</g>
				<g>
					<g>
						<path d="M724.66,450.35c1.19,2.88,3.89,4.93,6.98,5.3c0.48,0.06,0.47-0.69,0-0.75c-2.72-0.33-5.21-2.22-6.26-4.75
							C725.2,449.71,724.48,449.9,724.66,450.35L724.66,450.35z"/>
					</g>
				</g>
				<g>
					<g>
						<path d="M814.68,449.66c2.81-0.1,5.23-2.67,5.13-5.48c-0.02-0.48-0.77-0.48-0.75,0c0.08,2.4-1.97,4.65-4.38,4.73
							C814.2,448.93,814.2,449.68,814.68,449.66L814.68,449.66z"/>
					</g>
				</g>
				<path class="st8" d="M739.72,937.42c0,0-10.19,7.22-23.1,16.35l-19.7-30.02c9.32-8.76,22.05-23.31,22.05-23.31L739.72,937.42z"
					/>
				<path class="st15" d="M715.67,954.44c-21.14,14.94-48.97,34.55-51.73,36.21c-4.51,2.7-11.72,18.94-39.69,8.11
					c-27.96-10.82-6.31-43.29-2.7-48.71c3.6-5.41,61.34-18.94,66.75-19.84c1.45-0.24,4.33-2.49,7.76-5.65
					C699.58,932.25,706.5,945.54,715.67,954.44z"/>
				<path class="st15" d="M716.62,953.77c-0.31,0.22-0.63,0.44-0.95,0.67c-9.17-8.9-16.09-22.19-19.61-29.88
					c0.28-0.26,0.57-0.53,0.86-0.81L716.62,953.77z"/>
				<path class="st8" d="M886.88,914.81l-33.87,26.76c-10.97-4.71-23.09-9.05-25.98-9.34l35.1-24.59L886.88,914.81z"/>
				<path class="st15" d="M928.51,931.34l-13.63,101.26c0,0-1.25,3.5-19.11,0.8c-17.87-2.7-21.35-76.48-23.59-81.24
					c-1.01-2.11-8.98-6.18-18-10.09c5.74-4.22,15.7-12.19,33.03-27.16l37.71,10.93C927.32,926.53,928.84,928.87,928.51,931.34z"/>
				<path class="st15" d="M887.21,914.91c-17.33,14.97-27.29,22.94-33.03,27.16c-0.39-0.17-0.78-0.34-1.17-0.5l33.87-26.76
					L887.21,914.91z"/>
				<line class="st0" x1="685.91" y1="726.45" x2="693.46" y2="640.14"/>
				<line class="st0" x1="890.78" y1="707.99" x2="868.45" y2="660.87"/>
				<g>
					<path class="st4" d="M1009.43,845.78c-26.16,20.75-25.26,19.85-31.57,22.56c-2.3,0.98-34.57,10.48-74.65,22.15h-0.01
						c-24.93,7.26-52.9,15.36-78.54,22.78c-46.22,13.37-84.94,24.52-84.94,24.52l-20.75-36.98l65.85-31.57c0,0,4.95-3.08,13.4-8.15
						c43.29-25.97,178.31-104.22,208.5-88.37C1042.8,791.66,1035.59,825.04,1009.43,845.78z"/>
					<path class="st16" d="M903.2,890.12c-24.93,7.26-137.84,39.88-163.55,47.39l-20.68-37.07
						C720.19,900.79,789.82,818.57,903.2,890.12z"/>
				</g>
				<path class="st4" d="M657.4,787.65c0,0,151.77,75.81,174.32,94.75l33.38,22.55l-39.69,35.18c0,0-127.19-34.28-152.45-38.79
					c-25.26-4.51-147.94-57.73-108.25-116.36C564.72,784.98,593.13,747.92,657.4,787.65z"/>
				<polyline class="st17" points="798.22,851.31 798.22,825.81 789.82,818.57 				"/>
				<line class="st18" x1="822.67" y1="931.97" x2="856.45" y2="904.95"/>
			</g>
		</g>
		<g id="paper">
			<path class="st19" d="M876.92,303.18c0,0-9.52,20.59,0.08,28.11l29.54-24.42L876.92,303.18z"/>
			<path class="st20" d="M876.4,303.79l71.42-67.98c0,0,17.42,8.39,36.58-5.04l-36.58,78.89
				C947.82,309.66,888.59,318.06,876.4,303.79z"/>
		</g>
		<g id="message">
			<polygon class="st8" points="637.56,461.05 630.89,466.96 579.27,512.69 550.17,486.23 538.69,475.8 598.46,420.47 			"/>
			<polyline class="st0" points="538.7,475.8 589.6,466.21 598.46,420.47 			"/>
			<path class="st21" d="M630.89,466.96l-51.62,45.73l-29.1-26.46c11.39,2.84,21.59,2.96,34.24-3.96
				c11.96-6.53,22.53-17.88,36.16-17.67C624.18,464.66,627.62,465.54,630.89,466.96z"/>
		</g>
		<g id="laptop">
			<rect x="1056.49" y="828.38" class="st8" width="201.71" height="14.56"/>
			<polygon class="st8" points="1292.17,730.64 1258.2,829.07 1123.03,827.68 1124.88,823.06 1161.85,730.64 			"/>
			<path class="st21" d="M1214.42,730.64c-2.57,1.79-5,3.79-7.27,6.05c-8.92,8.86-14.23,20.59-20.33,31.58
				c-10.28,18.52-27.02,48.49-49.14,54.28c-4.54,1.19-8.84,1.29-12.8,0.51l36.97-92.42H1214.42z"/>
		</g>
		<g id="cup">
			<g>
				<g>
					<path d="M1354.19,816.68c1.85-2.61,4.07-5.56,7.16-6.75c2.96-1.14,6.01-0.01,7.75,2.59c1.73,2.6,1.9,5.83,0.5,8.61
						c-1.46,2.92-4.22,5.09-7.2,6.31c-4.22,1.73-8.88,1.82-13.37,1.88c-0.64,0.01-0.64,1.01,0,1c4.46-0.07,9.07-0.17,13.3-1.79
						c3.26-1.24,6.29-3.48,7.98-6.59c1.61-2.96,1.68-6.43,0.01-9.38c-1.62-2.86-4.66-4.6-7.96-3.97c-4,0.77-6.81,4.45-9.02,7.57
						C1352.95,816.7,1353.82,817.2,1354.19,816.68L1354.19,816.68z"/>
				</g>
			</g>
			<g>
				<g>
					<path d="M1321.47,794.89c3.79-0.85,7.08-3.57,8.63-7.13c1.62-3.72,1.19-8.21-1.03-11.6c-2.28-3.48-6.15-5.2-9.65-7.16
						c-1.79-1-3.52-2.1-4.95-3.58c-1.35-1.39-2.42-3.05-3.18-4.83c-1.72-4.03-1.85-8.69-0.16-12.75c0.25-0.59-0.72-0.85-0.96-0.27
						c-2.88,6.91-0.61,15.51,5.31,20.08c3.19,2.46,7.12,3.76,10.24,6.31c3.25,2.67,4.96,6.88,4.17,11.06
						c-0.82,4.38-4.37,7.91-8.69,8.89C1320.58,794.06,1320.84,795.03,1321.47,794.89L1321.47,794.89z"/>
				</g>
			</g>
			<g>
				<g>
					<path d="M1334.38,724.97c-3.97,4.97-5.39,11.69-3.98,17.87c1.34,5.91,5.39,10.28,9.92,14.05c4.28,3.56,9.16,6.76,12.39,11.39
						c1.66,2.37,2.8,5.1,3.02,8.01c0.24,3.21-0.53,6.48-2.18,9.25c-3.37,5.67-10.36,8.38-16.72,6.83c-0.81-0.2-1.6-0.46-2.36-0.79
						c-0.58-0.25-1.09,0.61-0.5,0.86c5.93,2.58,13.27,1.38,17.92-3.17c4.56-4.45,6.13-11.61,3.81-17.55
						c-2.07-5.3-6.55-9.03-10.87-12.48c-4.51-3.6-9.45-7.25-12.04-12.56c-2.88-5.92-2.49-13.32,0.88-18.95
						c0.43-0.71,0.9-1.4,1.42-2.04C1335.48,725.18,1334.78,724.46,1334.38,724.97L1334.38,724.97z"/>
				</g>
			</g>
			<ellipse class="st8" cx="1330.64" cy="838.77" rx="31.54" ry="4.16"/>
			<path class="st8" d="M1353.17,812.95c0,7.04-2.55,13.44-6.69,18.14c-4.34,4.95-10.46,8.03-17.23,8.03
				c-13.21,0-23.91-11.72-23.91-26.17c0-2.26,0.26-4.45,0.76-6.54c0.27-1.14,0.61-2.26,1.01-3.34h44.29
				C1352.54,806.12,1353.17,809.45,1353.17,812.95z"/>
			<path class="st22" d="M1346.48,831.09c-4.34,4.95-10.46,8.03-17.23,8.03c-13.21,0-23.91-11.72-23.91-26.17
				c0-2.26,0.26-4.45,0.76-6.54c2.26,3.66,4.38,8.31,6.69,9.47c4.09,2.04,8.79,2.37,13.34,2.75c4.56,0.38,9.28,0.91,13.18,3.29
				c3.03,1.85,5.37,4.76,6.77,8.03C1346.24,830.32,1346.38,830.7,1346.48,831.09z"/>
		</g>
		<g id="element">
			<g>
				<path class="st23" d="M1231.1,351.88l-13.8,13.04c-0.09,0.09-0.14,0.2-0.14,0.33l0.28,8.54c0.01,0.31-0.3,0.53-0.63,0.45
					l-8.64-2.11c-0.33-0.08-0.65,0.15-0.63,0.45l0.52,10.48c0.01,0.19-0.1,0.36-0.29,0.43l-15.49,6.34"/>
				<polyline class="st23" points="1222.59,351.16 1232.09,350.89 1232.09,359.73 				"/>
				<g id="angle_1_">
					<polygon class="st24" points="1252.11,279.16 1234.97,264.67 1248.91,248.29 1266.04,262.77 					"/>
					<g>
						<polyline class="st25" points="675.73,237.45 700.87,215.22 737.57,240.01 						"/>
						<ellipse class="st26" cx="675.73" cy="237.45" rx="2.26" ry="2.52"/>
						<ellipse class="st26" cx="700.87" cy="215.22" rx="3.48" ry="3.76"/>
						<ellipse class="st26" cx="737.57" cy="240.01" rx="3.22" ry="3.29"/>
					</g>
					<polygon class="st27" points="1247.27,280.37 1230.14,265.88 1244.07,249.5 1261.2,263.98 					"/>
					<polygon class="st28" points="1259.32,496.37 1260.08,506.24 1260.84,516.12 1251.81,511.72 1242.77,507.32 1251.05,501.85 
											"/>
					<ellipse class="st29" cx="517.98" cy="242.83" rx="6.46" ry="6.56"/>
					<ellipse class="st28" cx="841.81" cy="220.33" rx="4.16" ry="4.15"/>
					<ellipse class="st30" cx="318.29" cy="479.79" rx="11.59" ry="11.3"/>
					<ellipse class="st27" cx="316.56" cy="476.09" rx="11.59" ry="11.3"/>
				</g>
			</g>
		</g>
	</g>
</g>
</svg>
