
<svg width="63px" height="66px" viewBox="0 0 63 66" version="1.1" xmlns="http://www.w3.org/2000/svg" xmlns:xlink="http://www.w3.org/1999/xlink">
    <g id="页面-1" stroke="none" stroke-width="1" fill="none" fill-rule="evenodd">
        <g id="红包" fill-rule="nonzero">
            <path d="M49.3765625,9.31015625 L57.4679687,11.178125 C61.0554687,12.00625 63.2921875,15.5859375 62.4640625,19.1734375 L53.4664062,58.1484375 C52.6382812,61.7359375 49.0585937,63.9726562 45.4710937,63.1445312 L43.3570312,62.65625 C46.7359375,62.33125 49.3773437,59.484375 49.3773437,56.0203125 L49.3773437,9.35390625 C49.3765625,9.33984375 49.3765625,9.325 49.3765625,9.31015625 L49.3765625,9.31015625 Z" id="路径" fill="#FFC33E"></path>
            <path d="M46,19.3335937 C47.840625,19.3335937 49.3335938,20.8257812 49.3335938,22.6671875 L49.3335938,59.3335937 C49.3335938,61.1742187 47.8414063,62.6671875 46,62.6671875 C44.159375,62.6671875 42.6664063,61.175 42.6664063,59.3335937 L42.6664063,22.6671875 C42.6664063,20.8265625 44.159375,19.3335937 46,19.3335937 Z" id="路径" fill-opacity="0.35" fill="#FFCB4B"></path>
            <path d="M52,12.6671875 L52,9.33359375 C52,4.1875 47.8132812,0 42.6664062,0 L9.33359375,0 C4.1875,0 0,4.18671875 0,9.33359375 L0,56 C0,61.1460938 4.18671875,65.3335938 9.33359375,65.3335938 L42.6671875,65.3335938 C47.8132812,65.3335938 52.0007813,61.146875 52.0007813,56 L52.0007813,12.6703125 C52,12.6695313 52,12.6679688 52,12.6671875 L52,12.6671875 Z M5.33359375,9.33359375 C5.33359375,7.128125 7.128125,5.33359375 9.33359375,5.33359375 L42.6671875,5.33359375 C44.8726563,5.33359375 46.6671875,7.128125 46.6671875,9.33359375 L46.6671875,12.6671875 C46.6671875,14.1375 44.6679688,15.9078125 41.4492188,17.2875 C37.3664063,19.0375 31.8796875,20.0007812 26.0007813,20.0007812 C20.121875,20.0007812 14.634375,19.0375 10.5523438,17.2875 C7.33359375,15.9078125 5.334375,14.1375 5.334375,12.6671875 L5.334375,9.33359375 L5.33359375,9.33359375 Z M42.6664062,60.0007812 L9.33359375,60.0007812 C7.128125,60.0007812 5.33359375,58.20625 5.33359375,56.0007812 L5.33359375,20.5757812 C6.26015625,21.15625 7.3,21.6960937 8.45078125,22.1890625 C13.1820312,24.2171875 19.4148437,25.3335937 26.0007812,25.3335937 C32.5867188,25.3335937 38.81875,24.2171875 43.55,22.1890625 C44.7,21.6960937 45.7398437,21.15625 46.6671875,20.5757812 L46.6671875,56.0007812 C46.6664062,58.20625 44.8726562,60.0007812 42.6664062,60.0007812 Z" id="形状" fill="#000000"></path>
            <path d="M33.3335937,44.8335937 L28,44.8335937 L28,43.8335937 L32,43.8335937 C33.1046875,43.8335937 34,42.9382812 34,41.8335937 C34,40.7289062 33.1046875,39.8335937 32,39.8335937 L28.6257812,39.8335937 L32.6640625,33.7765625 C33.2765625,32.8578125 33.028125,31.615625 32.109375,31.003125 C31.190625,30.390625 29.9484375,30.6382812 29.3359375,31.5578125 L26,36.5617187 L22.6640625,31.5578125 C22.0515625,30.6390625 20.809375,30.390625 19.890625,31.003125 C18.971875,31.615625 18.7234375,32.8578125 19.3359375,33.7765625 L23.3742187,39.8335937 L19.3335937,39.8335937 C18.2289062,39.8335937 17.3335937,40.7289062 17.3335937,41.8335937 C17.3335937,42.9382812 18.2289062,43.8335937 19.3335937,43.8335937 L24,43.8335937 L24,44.8335937 L19.3335937,44.8335937 C18.2289062,44.8335937 17.3335937,45.7289062 17.3335937,46.8335937 C17.3335937,47.9382812 18.2289062,48.8335937 19.3335937,48.8335937 L24,48.8335937 L24,52.6671875 C24,53.771875 24.8953125,54.6671875 26,54.6671875 C27.1046875,54.6671875 28,53.771875 28,52.6671875 L28,48.8335937 L33.3335937,48.8335937 C34.4382812,48.8335937 35.3335937,47.9382812 35.3335937,46.8335937 C35.3335937,45.7289062 34.4382812,44.8335937 33.3335937,44.8335937 L33.3335937,44.8335937 Z" id="路径" fill="#FFC33E"></path>
        </g>
    </g>
</svg>