
<svg width="70px" height="70px" viewBox="0 0 70 70" version="1.1" xmlns="http://www.w3.org/2000/svg" xmlns:xlink="http://www.w3.org/1999/xlink">
    <g id="页面-1" stroke="none" stroke-width="1" fill="none" fill-rule="evenodd">
        <g id="二维码" fill-rule="nonzero">
            <path d="M34.0479688,7.21632812 C33.8492969,3.5115625 30.9484375,0.4603125 27.2385937,0.057109375 L27.2385937,0.00125 L7.66148438,0.00125 C3.58609375,0.00125 0.23125,3.20703125 0.01484375,7.21632812 L0.0025,25.7324219 C0.0025,25.9661719 0.04359375,26.1963281 0.116875,26.4076563 C0.741640625,30.0886719 3.91484375,32.7633594 7.6615625,32.7633594 L26.8629687,32.7633594 L27.23875,32.7409375 L27.23875,32.7096094 C30.6397656,32.3465625 33.3742188,29.8015625 33.93125,26.4639844 C34.0184375,26.1988281 34.0628906,25.96625 34.0628906,25.7325 L34.0628906,7.5903125 L34.0628906,7.21632812 L34.0479688,7.21632812 L34.0479688,7.21632812 Z M29.4804688,8.01601562 L29.4804688,24.748125 C29.4804688,26.6489062 27.9275781,28.1928906 26.0170313,28.1928906 L8.0421875,28.1928906 C6.13367188,28.1928906 4.58148438,26.6489063 4.58148438,24.748125 L4.58148438,8.01601562 C4.58148438,6.115 6.13367188,4.56914062 8.0421875,4.56914062 L26.0171094,4.56914062 C27.9275781,4.56914062 29.4804688,6.11507813 29.4804688,8.01601562 M33.15,44.1689062 C32.9509375,40.5664062 30.1322656,37.5985156 26.5244531,37.2025 L26.5244531,37.1478906 L7.465,37.1478906 C3.49671875,37.1478906 0.23,40.2651562 0.016015625,44.1689063 L0,62.19375 C0,62.4300781 0.04609375,62.6689844 0.113046875,62.8553906 C0.721640625,66.4403125 3.81539063,69.0475781 7.465,69.0475781 L26.1514063,69.0475781 L26.5244531,69.0277344 L26.5244531,68.9929688 C29.8361719,68.6372656 32.495625,66.1590625 33.033125,62.9176562 C33.1224219,62.6813281 33.1673438,62.4399219 33.1673438,62.19375 L33.1673438,44.5446094 L33.1623437,44.1689063 L33.15,44.1689062 L33.15,44.1689062 Z M28.6892187,44.9550781 L28.6892187,61.2382031 C28.6892187,63.0821094 27.1839062,64.5821875 25.3305469,64.5821875 L7.835625,64.5821875 C5.98460937,64.5821875 4.47929687,63.0821094 4.47929687,61.2382031 L4.47929687,44.9550781 C4.47929687,43.1139844 5.98460938,41.6116406 7.835625,41.6116406 L25.3304688,41.6116406 C27.1839062,41.6116406 28.6892187,43.1139062 28.6892187,44.9550781 M69.0455469,7.03929688 L69.0352344,7.03929688 C68.83375,3.426875 66.0077344,0.451484375 62.3901563,0.05375 L62.3901563,0 L45.2634375,0 C41.2926562,0 38.0160937,3.12617188 37.7971094,7.03929688 L37.7848437,25.1127344 C37.7848437,25.3517187 37.8297656,25.5969531 37.8992187,25.771875 C38.50625,29.3669531 41.6060937,31.9780469 45.2635156,31.9780469 L62.0171875,31.9780469 L62.3902344,31.9567969 L62.3902344,31.9272656 C65.7088281,31.5650781 68.3732812,29.0810156 68.9209375,25.8328906 C69.0052344,25.5880469 69.0475781,25.3466406 69.0475781,25.1127344 L69.0475781,7.4140625 L69.0455469,7.03929688 L69.0455469,7.03929688 Z M64.5597656,7.82710938 L64.5597656,24.1514063 C64.5597656,26.0010156 63.049375,27.505 61.19125,27.505 L45.6416406,27.505 C43.7810156,27.505 42.270625,26.0010156 42.270625,24.1514063 L42.270625,7.82710938 C42.270625,5.97953125 43.7810156,4.476875 45.6416406,4.476875 L61.19125,4.476875 C63.049375,4.476875 64.5597656,5.97953125 64.5597656,7.82710938" id="形状" fill="#272636"></path>
            <g id="编组-2" transform="translate(40.086328, 40.078828)" fill="#FFC33E">
                <path d="M2.701875,11.2352344 C1.21382813,11.2352344 2.84217094e-14,12.4067969 2.84217094e-14,13.8524219 L2.84217094e-14,22.83375 C2.84217094e-14,24.2792188 1.21382813,25.4558594 2.701875,25.4558594 C4.194375,25.4558594 5.4109375,24.2792188 5.4109375,22.83375 L5.4109375,13.8524219 C5.4109375,12.4073437 4.19445313,11.2352344 2.701875,11.2352344" id="路径"></path>
                <path d="M12.7602344,0.0025 C11.2702344,0.0025 10.0559375,1.17664063 10.0559375,2.62203125 L10.0559375,11.6083594 C10.0559375,13.0514844 11.2702344,14.2280469 12.7602344,14.2280469 C14.248125,14.2280469 15.4646094,13.0514063 15.4646094,11.6083594 L15.4646094,2.62203125 C15.4646094,1.17664063 14.2480469,0.0025 12.7602344,0.0025" id="路径"></path>
                <path d="M22.6892969,0 C21.1989844,0 19.985,1.17671875 19.985,2.62210937 L19.985,7.11289062 C19.985,8.55820312 21.1989844,9.73265625 22.6892969,9.73265625 C24.1798438,9.73265625 25.3963281,8.55820312 25.3963281,7.11289062 L25.3963281,2.62210937 C25.3964063,1.17664063 24.1798438,0 22.6892969,0" id="路径"></path>
                <path d="M22.6892969,13.476875 C21.1989844,13.476875 19.985,14.65125 19.985,16.0964063 L19.985,22.83375 C19.985,24.2817187 21.1989844,25.4558594 22.6892969,25.4558594 C24.1798438,25.4558594 25.3963281,24.2817969 25.3963281,22.83375 L25.3963281,16.0964062 C25.3964063,14.65125 24.1798438,13.476875 22.6892969,13.476875" id="路径"></path>
                <path d="M12.7602344,15.7257813 C11.2702344,15.7257813 10.0559375,16.9002344 10.0559375,18.3433594 L10.0559375,22.8363281 C10.0559375,24.2792969 11.2702344,25.4558594 12.7602344,25.4558594 C14.248125,25.4558594 15.4646094,24.2792188 15.4646094,22.8363281 L15.4646094,18.3433594 C15.4646094,16.9002344 14.2480469,15.7257813 12.7602344,15.7257813" id="路径"></path>
                <path d="M2.701875,0 C1.21382813,0 2.84217094e-14,1.17671875 2.84217094e-14,2.62210937 L2.84217094e-14,4.86875 C2.84217094e-14,6.31171875 1.21382813,7.48882812 2.701875,7.48882812 C4.194375,7.48882812 5.4109375,6.31171875 5.4109375,4.86875 L5.4109375,2.62210937 C5.4109375,1.17664063 4.19445313,0 2.701875,0" id="路径"></path>
            </g>
        </g>
    </g>
</svg>