<svg xmlns="http://www.w3.org/2000/svg" viewBox="0 0 1087.05 1072.49"><defs><style>.cls-1{fill:#fff;}.cls-2{fill:#b1bcd2;}.cls-3{fill:#e7eaf5;}.cls-4{fill:#94c384;}.cls-14,.cls-5{fill:#5b8b77;}.cls-6{fill:#78b066;}.cls-24,.cls-25,.cls-7{fill:#364d4d;}.cls-8{fill:#312b65;}.cls-9{fill:#d8796e;}.cls-10{fill:#e19b84;}.cls-11{fill:#a94151;}.cls-12{fill:#553780;}.cls-13{fill:#e7ac65;}.cls-14,.cls-15{opacity:0.56;}.cls-16{fill:#000401;}.cls-17{fill:#1c173d;}.cls-18{fill:#5b5191;}.cls-19{fill:#323879;}.cls-20{fill:#5c64a4;}.cls-21{fill:#d78058;}.cls-22{fill:#645aa2;}.cls-23{fill:#d3d9e6;}.cls-24{opacity:0.45;}.cls-25{opacity:0.67;}.cls-26{opacity:0.21;}.cls-27{opacity:0.51;}.cls-28{fill:#8b9bc3;}</style></defs><g id="OBJECTS"><rect class="cls-1" x="210.93" y="115.7" width="379.02" height="617.77" rx="4.64"/><path class="cls-2" d="M569.87,143.53V705.64a4.21,4.21,0,0,1-4.14,4.28H549.21a4.21,4.21,0,0,0,4.15-4.28V143.53a4.22,4.22,0,0,0-4.15-4.29h16.52A4.22,4.22,0,0,1,569.87,143.53Z"/><path class="cls-3" d="M553.36,143.53V705.64a4.21,4.21,0,0,1-4.15,4.28H235.15a4.21,4.21,0,0,1-4.15-4.28V143.53a4.22,4.22,0,0,1,4.15-4.29H549.21A4.22,4.22,0,0,1,553.36,143.53Z"/><path class="cls-2" d="M215.56,733.47H197.89a4.63,4.63,0,0,1-4.63-4.64V120.33a4.63,4.63,0,0,1,4.63-4.63h17.67a4.63,4.63,0,0,0-4.63,4.63v608.5A4.63,4.63,0,0,0,215.56,733.47Z"/><rect class="cls-1" x="407.99" y="139.24" width="17.1" height="570.68"/><rect class="cls-2" x="392.13" y="139.24" width="15.86" height="570.68"/><rect class="cls-1" x="231" y="275.65" width="338.87" height="19.12"/><path class="cls-4" d="M247.76,264s1.87-11.78,6.51-17.87,11.88-10.1,13.62-3.74S247.76,264,247.76,264Z"/><path class="cls-5" d="M189.67,236.81s-12.77-11.51-16.82-3.43S189.67,236.81,189.67,236.81Z"/><path class="cls-5" d="M207.11,254s-9.63-14.3-6.16-25.3,9.19-9.28,11.26,0S207.11,254,207.11,254Z"/><path class="cls-6" d="M212.59,255.52s8,25.63-1.66,29.69S202.2,269,212.59,255.52Z"/><path class="cls-5" d="M264.19,275.65s9.2-18.84,15.87-13.91S264.19,275.65,264.19,275.65Z"/><path class="cls-5" d="M565.7,208.42s9.2-18.83,15.87-13.91S565.7,208.42,565.7,208.42Z"/><path class="cls-5" d="M590.44,309.28s9.2-18.84,15.86-13.91S590.44,309.28,590.44,309.28Z"/><path class="cls-5" d="M593.25,387.83s9.2-18.84,15.87-13.91S593.25,387.83,593.25,387.83Z"/><path class="cls-5" d="M536.26,477.75s9.2-18.83,15.87-13.9S536.26,477.75,536.26,477.75Z"/><path class="cls-4" d="M266.83,306s13.52-6,19,10.12-2.6,15.79-7.24,10S266.83,306,266.83,306Z"/><path class="cls-6" d="M186.06,294.77S183,282,167.63,277.09s-25.79.87-16.81,12.17S186.06,294.77,186.06,294.77Z"/><path class="cls-5" d="M212.59,336.16s-9.94-15.6-8.18-27.63,11.32-13.12,15.09-2.58S212.59,336.16,212.59,336.16Z"/><path class="cls-5" d="M195.22,323.12s-15.6,1.21-22.9,15.69,6.54,22.81,13.74,10.83S195.22,323.12,195.22,323.12Z"/><path class="cls-5" d="M599,226.38s-11.29.87-16.58,11.37,4.73,16.52,10,7.84S599,226.38,599,226.38Z"/><path class="cls-6" d="M578.92,334.78s-11.3.88-16.58,11.37,4.73,16.52,9.94,7.84S578.92,334.78,578.92,334.78Z"/><path class="cls-4" d="M590,424s-11.3.88-16.59,11.37,4.73,16.53,9.95,7.85S590,424,590,424Z"/><path class="cls-4" d="M560.45,408.76s-11.3.88-16.59,11.37,4.74,16.52,9.95,7.84S560.45,408.76,560.45,408.76Z"/><path class="cls-4" d="M535.42,459.83s1-8.47-6.06-13.86-12.87,1.15-7.2,6.23A43.19,43.19,0,0,0,535.42,459.83Z"/><path class="cls-5" d="M584.66,327.57s-2-8.18-10.3-10.8-11.54,5.43-4.57,8.22A42.67,42.67,0,0,0,584.66,327.57Z"/><path class="cls-5" d="M551.41,355.3s-2-8.17-10.3-10.8-11.54,5.43-4.56,8.22A42.62,42.62,0,0,0,551.41,355.3Z"/><path class="cls-5" d="M551.41,399.54s-2-8.17-10.3-10.8-11.54,5.43-4.56,8.22A42.62,42.62,0,0,0,551.41,399.54Z"/><path class="cls-6" d="M220.3,340.6s2.1,14.73-6.31,22-6,17.68-9.79,13.62S197.48,362,200.08,353,215.6,340.06,220.3,340.6Z"/><path class="cls-5" d="M208,455.66s-22-9.05-25.22-26.15,5.85-18.84,12.61-11.3S208,455.66,208,455.66Z"/><path class="cls-6" d="M184.44,486.3s-9.86-4.34-22,5.51-9.27,32-6.95,29.92,5.75-8.48,13.45-6.74S183.28,497.6,184.44,486.3Z"/><path class="cls-6" d="M599.73,244s3.17-5.69,12.63-5.37,16.15,12.07,14.26,11.9-5.86-2-9,1.66S604.41,249,599.73,244Z"/><path class="cls-5" d="M184.18,600.18s-13.07,4.5-16.55-12.68,2.61-23,2.9-21.8,4.34,8.45,9.56,10S186.82,594.1,184.18,600.18Z"/><path class="cls-5" d="M188.13,623.81s-17.89-1.9-24.56,14,.18,28.1,3,24,3.68-3.19,13.82-8.4S190.62,629.67,188.13,623.81Z"/><path class="cls-6" d="M257.26,675.52A10.62,10.62,0,0,0,260,662.8c-3.56-7.72-10-9.84-9.47-7.52s0,2.28-1.36,7.33S254.4,674.25,257.26,675.52Z"/><path class="cls-5" d="M257,584s-8.62-3.81-5.15-18.45,9.08-15.26,11-6.44S257,584,257,584Z"/><path class="cls-5" d="M249,598.22s-11-5.86-9.27-15.09,6.19-5.45,7.92,0S249,598.22,249,598.22Z"/><path class="cls-6" d="M245.33,607.38s17.34-22.85,23.91-17S261.79,611.29,245.33,607.38Z"/><path class="cls-5" d="M241.23,622.24l.5-.52c2.65-2.73,15.22-14.93,19-5C265,627.8,241.23,622.24,241.23,622.24Z"/><path class="cls-4" d="M246.15,680l.72.05c3.81.25,21.23,1.95,16.13,11.25C257.28,701.76,246.15,680,246.15,680Z"/><path class="cls-5" d="M243.61,612.88s-.83-20-5.86-16.37S236.14,608.2,243.61,612.88Z"/><path class="cls-5" d="M237.53,517.65s.89-25.55,7.8-27S249.19,512.78,237.53,517.65Z"/><path class="cls-4" d="M239.5,542.45s11.74-19.06,17.6-10.94S248,543.25,239.5,542.45Z"/><path class="cls-7" d="M231,321.57a.58.58,0,0,1-.05-1.15c.26,0,26.35-2.47,35.6-16.28,3.53-5.26,4.18-11.58,1.94-18.76-6.1-19.57-26.55-23.47-44.59-26.92-10.78-2.06-21-4-27.08-9-16.38-13.46-4.22-41-4.09-41.26a.58.58,0,0,1,.77-.29.59.59,0,0,1,.29.77c-.13.27-11.93,27,3.76,39.88,5.89,4.84,15.93,6.75,26.56,8.78,18.37,3.51,39.18,7.48,45.49,27.72,2.35,7.53,1.65,14.18-2.09,19.75-9.56,14.27-35.36,16.68-36.46,16.78Z"/><path class="cls-7" d="M231,396.28a.61.61,0,0,1-.4-.16.57.57,0,0,1,0-.82c.1-.11,10.56-11.19,7.17-32.64-2-12.61-11-17.75-21.47-23.7-7.54-4.29-16.07-9.16-23.47-17.58-17.78-20.27-.19-42.69,0-42.91a.57.57,0,0,1,.81-.09.59.59,0,0,1,.09.82c-.17.21-17.15,21.88,0,41.41,7.27,8.28,15.72,13.09,23.17,17.34,10.71,6.1,20,11.37,22,24.53,3.49,22.06-7.37,33.51-7.48,33.62A.59.59,0,0,1,231,396.28Z"/><path class="cls-7" d="M193.26,530.21a.59.59,0,0,1-.54-.36c-.51-1.25-12.32-30.65-7.87-45,5.39-17.33,28.73-34.92,35.76-39.9,13.4-9.49,9.88-20.63,9.84-20.74a.58.58,0,1,1,1.1-.37c0,.12,3.83,12.07-10.27,22.06-6.95,4.92-30,22.31-35.32,39.3-4.34,13.93,7.71,43.89,7.83,44.19a.58.58,0,0,1-.32.76A.52.52,0,0,1,193.26,530.21Z"/><path class="cls-7" d="M231.35,700.41l-.91-3.1c-8.43-29-23.14-48.5-40.08-69.19-7-8.54-8.78-21.62-5.19-37.85a108.26,108.26,0,0,1,7.57-22.09.57.57,0,0,1,.77-.26.58.58,0,0,1,.27.78c-.19.38-18.89,38.69-2.52,58.69s30.79,39,39.41,66.65c1.08-13.12,5.82-64.72,14.85-88.91,10.43-27.94,20.87-29.92,21.31-30a.58.58,0,0,1,.66.49.57.57,0,0,1-.48.66c-.09,0-10.27,2.08-20.41,29.25-10.28,27.54-15,91-15,91.65Z"/><path class="cls-7" d="M231,697.73a.69.69,0,0,1-.24-.05.58.58,0,0,1-.28-.77c.2-.45,5.16-11,12.91-16.83s21.45-5.13,22-5.1a.6.6,0,0,1,.55.62.58.58,0,0,1-.62.54c-.14,0-13.79-.74-21.25,4.86s-12.51,16.29-12.56,16.4A.58.58,0,0,1,231,697.73Z"/><path class="cls-7" d="M231,574.1a.58.58,0,0,1-.52-.83c.11-.22,10.71-22.51,8.44-43.58-2.24-20.81-7.71-25-7.76-25.05a.58.58,0,0,1-.14-.8.57.57,0,0,1,.8-.14c.24.16,5.94,4.37,8.25,25.87s-8.44,44-8.55,44.2A.57.57,0,0,1,231,574.1Z"/><path class="cls-7" d="M590,466.91a.56.56,0,0,1-.33-.1.59.59,0,0,1-.15-.81c.13-.19,12.79-19.05,3.79-35.54-6.39-11.72-19.69-16.15-29.4-19.39-4.27-1.42-7.65-2.55-9.62-4-6.7-4.9-1.42-13.44-1.37-13.52a.58.58,0,0,1,1,.62c-.2.31-4.75,7.7,1.08,12,1.82,1.33,5.28,2.49,9.29,3.82,9.9,3.3,23.45,7.81,30.06,19.94,9.34,17.11-3.72,36.55-3.86,36.75A.57.57,0,0,1,590,466.91Z"/><path class="cls-7" d="M553.4,490.65h-.06c-.22,0-21.78-2.69-20-28.82,1.28-19.09,21.4-31.3,37.57-41.11,6-3.62,11.59-7,15.37-10.29,11.38-9.8,5.89-27.34,3.82-33.94a12.7,12.7,0,0,1-.71-2.66.58.58,0,0,1,.58-.58h0a.58.58,0,0,1,.58.58,18.59,18.59,0,0,0,.65,2.31c2.13,6.8,7.8,24.87-4.17,35.17-3.84,3.31-9.52,6.75-15.52,10.4-15.94,9.67-35.77,21.7-37,40.2-.71,10.5,2.26,18.33,8.83,23.27a23.1,23.1,0,0,0,10.16,4.31.58.58,0,0,1-.06,1.16Z"/><path class="cls-7" d="M589.94,265a.55.55,0,0,1-.32-.1.58.58,0,0,1-.16-.8c.16-.23,15.53-23.45,8.43-37.28-5.17-10.07-10.83-11.48-20.22-13.81A125.66,125.66,0,0,1,565,209.35c-17.7-6.29-12.24-25.62-12.18-25.82a.57.57,0,0,1,.71-.39.58.58,0,0,1,.4.72c-.22.75-5.2,18.48,11.46,24.4A127,127,0,0,0,578,211.9c9.37,2.33,15.56,3.87,21,14.42,7.42,14.43-7.84,37.47-8.5,38.44A.56.56,0,0,1,589.94,265Z"/><path class="cls-7" d="M553.36,379.68a.59.59,0,0,1-.42-.18c-.18-.19-4.56-4.86-4.31-16.94.21-10,8.78-15.39,20.63-22.92,2.86-1.81,5.82-3.69,8.93-5.8,15.55-10.54,11.23-42.15,11.18-42.46a.58.58,0,1,1,1.15-.17c.19,1.33,4.47,32.65-11.68,43.59-3.13,2.12-6.09,4-9,5.82-11.55,7.33-19.9,12.63-20.1,22-.24,11.54,4,16.06,4,16.1a.59.59,0,0,1-.42,1Z"/><path class="cls-4" d="M923.33,397.07V585.89c0,1.79-2.08,3.25-4.64,3.25H782.27c-2.56,0-4.64-1.46-4.64-3.25V397.07c0-1.8,2.08-3.25,4.64-3.25H918.69C921.25,393.82,923.33,395.27,923.33,397.07Z"/><path class="cls-1" d="M862.58,589.14H782.27c-2.56,0-4.64-1.46-4.64-3.25V541.06c10.89-5.64,23.69-7.6,36.5-3.5,2.56.82,28.07,2.74,24,15.59s-12.17,22.58,7.53,21.77C855.88,574.5,861.83,581.39,862.58,589.14Z"/><path class="cls-1" d="M862.66,491.48c4.45-10.36,8.51-26.2-4.82-25.79s-30.32,11-30.32,11-41.2,29.09-13.39,36.65,23.77,26.29,36.35,27.92,20.11-13.94,17.79-23,16.81-8.26,16.23-16S858.21,501.83,862.66,491.48ZM855.52,530c-4.14,1.22-8.82-3.13-9.51-5.54-1-3.6,4.31-7.32,9-5.6a8.41,8.41,0,0,1,1,.46C859.38,521.15,860,528.69,855.52,530Z"/><path class="cls-5" d="M868.85,553.15s-15.28,4.72-6.19,12.84,37.49,3.4,32.27-6.42S868.85,553.15,868.85,553.15Z"/><path class="cls-5" d="M923.33,524.46v61.43c0,1.79-2.08,3.25-4.64,3.25H890c.34-1.76,2.37-3.56,7.17-5.28,19.21-6.91,16.32-8,6.46-32.4C897.34,535.85,909.23,524.78,923.33,524.46Z"/><path class="cls-5" d="M918.69,393.82H867c-7.31,12.18-17.09,33.81,5.37,34.11,31.29.4-3.45,24.36,12.18,36.14s35.92.81,29,14.21c-4.76,9.17-1.1,26.57,9.85,30.51V397.07C923.33,395.27,921.25,393.82,918.69,393.82Zm-35.28,13.73c4-4.06,8-4.51,11.67-3.24,4.51,1.55,8,5,10.79,7.87C915.6,422.19,870.4,420.87,883.41,407.55Zm24.24,44.74c-5.89-2.21-4.43-10.56.85-13a7.7,7.7,0,0,1,5.26-.43C923.29,441.17,917.21,455.88,907.65,452.29Z"/><path class="cls-3" d="M671.85,141.3V325.78c0,1.76,3.58,3.18,8,3.18H915.32c4.42,0,8-1.42,8-3.18V141.3c0-1.75-3.58-3.17-8-3.17H679.85C675.43,138.13,671.85,139.55,671.85,141.3Z"/><path class="cls-8" d="M698,327.39h.14a1.15,1.15,0,0,0,1-1.29c0-.2-2.25-20,6.12-33.48,3.09-5,14.65-21.41,33.66-23.88,14.63-1.91,30.27,4.87,46.47,20.15,12.46,11.75,26.21,17.41,40.89,16.82,28.11-1.14,49.5-24.51,50.4-25.51a1.16,1.16,0,0,0-1.72-1.55c-.22.24-21.66,23.66-48.79,24.75-14,.56-27.2-4.89-39.19-16.2-16.73-15.77-33-22.76-48.36-20.76-20,2.61-32.1,19.76-35.33,25-8.8,14.18-6.55,34.13-6.45,35A1.16,1.16,0,0,0,698,327.39Z"/><path class="cls-8" d="M805.14,247.06a1.25,1.25,0,0,0,.42-.08,1.17,1.17,0,0,0,.66-1.5c-.12-.3-11.37-29.76-4-59.74C809.49,156,833,149,833.27,148.91a1.16,1.16,0,1,0-.64-2.23,43.18,43.18,0,0,0-13.51,7.52c-6.55,5.2-15.2,14.8-19.17,31-7.53,30.71,4,60.83,4.11,61.13A1.14,1.14,0,0,0,805.14,247.06Z"/><path class="cls-9" d="M820.2,256.16s7,29.91-19.12,46L775,318.17s95.62,24.34,107.79-11.59S873.52,218.49,820.2,256.16Z"/><path class="cls-8" d="M695,327.57l2.31,1.39h218c4.42,0,8-1.42,8-3.18V141.3c0-1.75-3.58-3.17-8-3.17H833.53c-15.07,8.24-12.72,30.42-12.72,30.42L867,219.82s20.46-5,22.2,4.25-16.4,29.13-16.4,29.13-7.36,31.94-23.78,43.39-26.47,20.42-67.94,5.32S695,327.57,695,327.57Z"/><path class="cls-10" d="M831.13,164.77a3.46,3.46,0,0,0-5.26-1.25c-3.78,2.95-9.27,8.67-9.9,17.31-1,13.32.76,22.06-3.3,30.44s-15.1,17.43-15.08,23-.57,39.52,7,43.14,54.27-3,59.3-6.62,7-16,8.91-17.64,11.18,1.23,17.56-12.1,5.21-19.51-2.9-26.28-14.66-3.55-14.66-3.55-11-3-23.4-17.58C840.41,183.11,834,170.76,831.13,164.77Z"/><path class="cls-8" d="M825.83,207.2a10.71,10.71,0,0,1,1-2.29,2.27,2.27,0,0,0,1.45.94c1.64.26,3.3-1.61,3.71-4.18,0-.22,0-.44.07-.65a4.12,4.12,0,0,1,1.56.14c3.08.88,4.6,5,3.4,9.22s-4.67,6.91-7.75,6S824.63,211.41,825.83,207.2Z"/><path class="cls-11" d="M805.49,253.59c3,0,6.64-.73,9.21-3.61a1.16,1.16,0,0,0-1.74-1.54c-4.09,4.61-12.23,2.2-12.32,2.17a1.16,1.16,0,0,0-.67,2.22A20.57,20.57,0,0,0,805.49,253.59Z"/><path class="cls-8" d="M869.26,209.78c2.07,0,3.41-.12,3.62-.14a1.12,1.12,0,0,0,1-1.21,1.15,1.15,0,0,0-1.27-1c-.22,0-21.93,1.94-32.69-11.45-10.93-13.58-10.49-37.28-10.48-37.52a1.16,1.16,0,0,0-2.32,0c0,1-.46,24.71,11,38.91C847,208.42,862.29,209.78,869.26,209.78Z"/><path class="cls-4" d="M740.58,245.93a56.32,56.32,0,0,0,7.69-.54c16.51-2.28,27.46-11.28,32.54-26.75,4.12-12.55,3.43-26.41,2.54-35.74-1.84-19.51-33.85-22.32-35.21-22.43a2.32,2.32,0,0,0-.37,4.62c.29,0,29.49,2.59,31,18.24,3.34,35.32-6.84,54.12-31.1,57.47a54.54,54.54,0,0,1-7.42.52c-18.33,0-27.49-10.27-30.79-15.12-5.09-7.5-6.35-16.39-3.11-22.12,8.47-15,15.73-25.9,32-29.09,14-2.74,23.09,2.2,27.09,14.66,1.78,5.53,4.51,19.21-8.59,26.63s-22.73,10.34-28.54,8.61a7.9,7.9,0,0,1-5-4.17c-4.44-8.61-5.72-17-3.42-22.56,1.4-3.37,4.17-5.73,8.24-7,13-4.09,17.59-2.84,19.2-1.73a3.21,3.21,0,0,1,1.35,2.74c0,.72.09,1.44.14,2.15.2,3.06.48,7.25-.49,8.11a2.16,2.16,0,0,1-1.54.08c-5.19-1-7.22-3-7.24-3a2.3,2.3,0,0,0-3.26-.15,2.33,2.33,0,0,0-.15,3.29c.29.32,3,3.18,9.79,4.45a6.2,6.2,0,0,0,5.48-1.17c2.67-2.38,2.36-7,2-11.89,0-.7-.09-1.4-.13-2.1a7.87,7.87,0,0,0-3.35-6.3c-4.15-2.87-11.75-2.5-23.23,1.13-5.43,1.71-9.17,5-11.12,9.65-4.06,9.76,1.15,21.76,3.58,26.46a12.43,12.43,0,0,0,7.75,6.49c7.17,2.14,17.69-.81,32.15-9C770.29,214,774.3,202,769.87,188.23c-2.73-8.48-10.56-22.07-32.4-17.79-18.22,3.56-26.4,15.77-35.19,31.36-4.14,7.35-2.84,17.95,3.32,27C713.08,239.8,725.82,245.93,740.58,245.93Z"/><path class="cls-2" d="M694.5,275.65a21.62,21.62,0,0,0,3-.21c6.39-.88,10.63-4.37,12.6-10.35,1.59-4.86,1.32-10.23,1-13.84-.71-7.55-13.1-8.64-13.63-8.68a.9.9,0,0,0-.14,1.79c.11,0,11.41,1,12,7.06,1.3,13.67-2.64,20.94-12,22.24a21.12,21.12,0,0,1-2.87.2c-7.1,0-10.65-4-11.92-5.85-2-2.9-2.46-6.34-1.21-8.56,3.28-5.82,6.09-10,12.4-11.26,5.41-1.06,8.94.85,10.49,5.67.69,2.15,1.75,7.44-3.32,10.31s-8.8,4-11,3.33a3,3,0,0,1-1.92-1.61c-1.72-3.33-2.21-6.6-1.33-8.73a4.81,4.81,0,0,1,3.19-2.72c5-1.58,6.81-1.1,7.44-.67a1.28,1.28,0,0,1,.52,1.06c0,.28,0,.56.05.84.08,1.18.19,2.8-.19,3.14a.86.86,0,0,1-.59,0,5.44,5.44,0,0,1-2.8-1.18.9.9,0,1,0-1.32,1.22,6.85,6.85,0,0,0,3.79,1.72,2.36,2.36,0,0,0,2.11-.45c1-.92.92-2.71.79-4.6,0-.27,0-.54,0-.82a3,3,0,0,0-1.29-2.43c-1.61-1.11-4.55-1-9,.43a6.5,6.5,0,0,0-4.3,3.74c-1.57,3.77.44,8.42,1.38,10.24a4.82,4.82,0,0,0,3,2.51c2.77.83,6.84-.31,12.44-3.49,4.31-2.44,5.87-7.08,4.15-12.42-1.05-3.28-4.09-8.54-12.54-6.88-7,1.38-10.22,6.1-13.62,12.14-1.6,2.84-1.1,6.94,1.28,10.45C683.85,273.27,688.78,275.65,694.5,275.65Z"/><path class="cls-2" d="M696.25,177a14.32,14.32,0,0,0,2-.14,9.89,9.89,0,0,0,8.67-7.13,23.91,23.91,0,0,0,.68-9.52c-.49-5.2-9-6-9.38-6a.62.62,0,0,0-.67.57.61.61,0,0,0,.57.66c.08,0,7.86.69,8.25,4.86.89,9.42-1.82,14.43-8.29,15.32a15.59,15.59,0,0,1-2,.14,9.56,9.56,0,0,1-8.21-4c-1.36-2-1.69-4.37-.83-5.9,2.26-4,4.19-6.9,8.54-7.75,3.72-.73,6.15.59,7.22,3.91.47,1.47,1.2,5.12-2.29,7.1s-6.06,2.75-7.61,2.29a2.13,2.13,0,0,1-1.32-1.11c-1.18-2.3-1.52-4.54-.91-6a3.27,3.27,0,0,1,2.2-1.87c3.45-1.09,4.68-.76,5.11-.47a.85.85,0,0,1,.36.74c0,.19,0,.38,0,.57,0,.81.13,1.93-.13,2.16a.57.57,0,0,1-.41,0,3.81,3.81,0,0,1-1.93-.81.62.62,0,1,0-.91.84,4.7,4.7,0,0,0,2.61,1.19,1.62,1.62,0,0,0,1.46-.32c.71-.63.63-1.86.54-3.16l0-.56a2.09,2.09,0,0,0-.89-1.68c-1.11-.77-3.14-.67-6.2.3a4.49,4.49,0,0,0-3,2.57c-1.08,2.6.31,5.8.95,7a3.32,3.32,0,0,0,2.07,1.73c1.91.57,4.71-.21,8.57-2.4,3-1.68,4-4.88,2.86-8.55-.73-2.26-2.82-5.88-8.64-4.74-4.85,1-7,4.2-9.38,8.35-1.1,2-.75,4.79.89,7.2A10.94,10.94,0,0,0,696.25,177Z"/><path class="cls-12" d="M835.16,329h80.16c4.42,0,8-1.42,8-3.18V141.3c0-1.75-3.58-3.17-8-3.17H872.77s-5.37,23.76,13.34,33.81,39.18,52.25,27.59,87.17-46.36,40.94-64.33,55.39A83,83,0,0,0,835.16,329Z"/><path class="cls-9" d="M879.24,218.49s4.68,1.28,6.87,7.89,1.66,15.3-3.44,13.27-9.21-2.59-8.75.3-1.85,5.14-3.3,3.14-2.9-4.6,0-6.92,9.27-1,10.72-5S882.64,221.39,879.24,218.49Z"/><path class="cls-8" d="M843.38,202.82a20.33,20.33,0,0,0-2.13-7.27c-1.17-2.11-5.06-5.24-7.59-3.69-1,.59-1.83-.91-.88-1.5,2.78-1.7,6.59.28,8.64,2.39,2.44,2.51,3.28,6.74,3.7,10.07.14,1.11-1.6,1.1-1.74,0Z"/><path class="cls-2" d="M899.37,650.15,839.65,913.63a4.63,4.63,0,0,1-4.51,3.61l-228.71.7-.57,0,218.49-.68a4.62,4.62,0,0,0,4.5-3.61l59.72-263.48a4.63,4.63,0,0,0-4.52-5.66h10.8A4.64,4.64,0,0,1,899.37,650.15Z"/><path class="cls-13" d="M876.47,660.82,842.18,812.13l-20.57,90.73a4.27,4.27,0,0,1-4.14,3.32h-2l-24.13.08-174.62.53-9.4,0a4.26,4.26,0,0,1-4.19-5.1l7.4-36.62L652.23,659a4.27,4.27,0,0,1,4.18-3.42H872.32A4.26,4.26,0,0,1,876.47,660.82Z"/><path class="cls-14" d="M851.24,814.87l-22.39,98.76a4.62,4.62,0,0,1-4.5,3.61h-2.14l-26.27.08c-8.87-8-19.54-18.31-36.29-28.33-42-25.11-19.82-49-19.82-49l4.77-5.82a9.9,9.9,0,0,1,5.14-18.37,9.75,9.75,0,0,1,4.12.91c0-.08,0-.15,0-.23a9.23,9.23,0,1,1,18.46,0,9.13,9.13,0,0,1-.43,2.78,19.33,19.33,0,0,1,20.64.42c2.46-5.89,9-10.11,16.79-10.11,9.54,0,17.33,6.4,17.79,14.44a9.08,9.08,0,0,1,2.52-.37,8.64,8.64,0,0,1,2.5.37,12.4,12.4,0,0,1,19.12-9.18Z"/><path class="cls-5" d="M825.59,907.78a14.94,14.94,0,0,1-3.38,9.47l-58.09.18-101.86.31-56.4.18-10.23,0a4.63,4.63,0,0,1-4.56-5.55l8.06-39.86,10.3-6.77a15,15,0,0,1,5.94-8,14.82,14.82,0,0,1-.35-3.21,15,15,0,0,1,24.81-11.38A15,15,0,0,1,662.31,840a15,15,0,0,1,21.81-6.79,15,15,0,0,1,11.81-5.74c.41,0,.82,0,1.23,0a15,15,0,0,1,26.31,3.71,15,15,0,0,1,20.17,22.23,15,15,0,0,1,6.19,10.25,15,15,0,0,1,26.51,4.35,15,15,0,0,1,13.27,12.85,14.82,14.82,0,0,1,2.42-.2,15,15,0,0,1,14.8,12.5,15.33,15.33,0,0,1,3.74-.47A15,15,0,0,1,825.59,907.78Z"/><path class="cls-4" d="M764.5,914a15.75,15.75,0,0,1-.38,3.46l-101.86.31c0-.11,0-.22,0-.34a14,14,0,0,1,14-14,12.82,12.82,0,0,1,1.65.11c0-.15,0-.3,0-.44a14.34,14.34,0,0,1,28.48-2.44,12.37,12.37,0,0,1,8.47-.29,13.11,13.11,0,1,1,26.07-2,13.5,13.5,0,0,1-.2,2.31A15.61,15.61,0,0,1,764.5,914Z"/><circle class="cls-5" cx="663.61" cy="771.92" r="21.16" transform="translate(-204.64 1303.32) rotate(-80.78)"/><path class="cls-5" d="M695.68,733.35a5.46,5.46,0,1,1-5.46-5.45A5.45,5.45,0,0,1,695.68,733.35Z"/><path class="cls-5" d="M650.64,721.48a3.25,3.25,0,1,1-3.25-3.24A3.25,3.25,0,0,1,650.64,721.48Z"/><path class="cls-5" d="M644.05,809a3.89,3.89,0,1,1-3.89-3.89A3.89,3.89,0,0,1,644.05,809Z"/><circle class="cls-5" cx="850.98" cy="691.87" r="3.77"/><circle class="cls-5" cx="825.08" cy="782.64" r="2.97"/><path class="cls-3" d="M779.21,724.73s-16.34,6.82-25.36,14.07-20.56,7.52-14,21.3,15,25.75,39.38,18,25.12-12,32.08-10.43,14.69.39,14.3-3.09-10.46-5.76-11.46-12-.91-11.9,3.34-19.29,6.18-6.61,12-15.11,6.18-13.91,6.18-13.91-6.28,5-7.58,4.25-4.88-7.54,0-16.71,7.58-14.59,7.58-14.59-13.91,3.48-17,16.42,1.54,17.58-.39,22.22S788.94,720.2,779.21,724.73Z"/><path class="cls-5" d="M777.68,754.75c0,1.38-1.43,2.51-3.19,2.51s-3.19-1.13-3.19-2.51,1.43-2.51,3.19-2.51S777.68,753.36,777.68,754.75Z"/><circle class="cls-5" cx="760.53" cy="743.01" r="1.59"/><g class="cls-15"><path class="cls-5" d="M783.47,806.9h-.11a.58.58,0,0,1-.46-.68c0-.09,1.76-9.44-2.93-14.11-2.53-2.52-6.51-3.26-11.84-2.21-5.18,1-8.32.58-9.6-1.36-2.24-3.41,2.43-10.23,5.22-14.31a22.63,22.63,0,0,0,1.6-2.51.59.59,0,0,1,.75-.33.57.57,0,0,1,.33.75,19,19,0,0,1-1.72,2.74c-2.46,3.59-7,10.27-5.21,13,1,1.46,3.87,1.75,8.4.86,5.74-1.14,10.07-.29,12.89,2.52,5.13,5.11,3.33,14.75,3.25,15.15A.58.58,0,0,1,783.47,806.9Z"/><path class="cls-5" d="M747,796.28a.58.58,0,0,1-.5-.28.59.59,0,0,1,.2-.8c.38-.22,9.24-5.68,6.64-14.48-.82-2.76-.57-5,.72-6.6,2.49-3.11,7.91-2.79,8.14-2.78a.58.58,0,0,1-.07,1.16c-.06,0-5.05-.29-7.16,2.35-1,1.31-1.22,3.17-.52,5.54,2.86,9.67-7,15.75-7.15,15.81A.64.64,0,0,1,747,796.28Z"/><path class="cls-5" d="M747,751.34a.58.58,0,0,1-.26-.06c-.49-.25-11.89-6.16-11.43-12,.21-2.67,2.78-4.84,7.65-6.44,4.3-1.42,6.81-3.1,7.67-5.14,1-2.28-.27-4.78-1.47-7.2-1.41-2.86-2.87-5.82,0-7.91,6.57-4.78,20.65,1.41,21.25,1.68a.58.58,0,0,1,.29.77.58.58,0,0,1-.76.29c-.14-.06-14.07-6.19-20.1-1.8-2,1.44-1.16,3.4.35,6.46,1.25,2.53,2.66,5.39,1.5,8.16-1,2.37-3.74,4.26-8.38,5.79-4.38,1.44-6.69,3.27-6.86,5.43-.4,5.11,10.69,10.86,10.8,10.92a.58.58,0,0,1,.26.78A.59.59,0,0,1,747,751.34Z"/><path class="cls-5" d="M749.08,748.41a.69.69,0,0,1-.24,0c-.2-.09-4.84-2.29-5.3-5.89-.25-2,.78-3.89,3.05-5.75a34.48,34.48,0,0,1,7-4.29c2.18-1.08,3.76-1.86,4-3,.25-1-.29-2.34-1.7-4.32a.59.59,0,0,1,.14-.81.58.58,0,0,1,.81.14c1.64,2.31,2.22,3.94,1.88,5.27-.43,1.7-2.21,2.58-4.66,3.8a32.9,32.9,0,0,0-6.79,4.15c-1.94,1.59-2.83,3.17-2.64,4.71.38,3,4.6,5,4.64,5a.58.58,0,0,1-.25,1.1Z"/></g><path class="cls-1" d="M884.05,644.49H649a4.65,4.65,0,0,0-4.55,3.72L599.13,872.53l-8.06,39.86a4.63,4.63,0,0,0,4.56,5.55l10.23,0,190.08-.59,26.27-.08h2.14a4.62,4.62,0,0,0,4.5-3.61l22.39-98.76,37.33-164.72A4.63,4.63,0,0,0,884.05,644.49Zm-7.58,16.33L842.18,812.13l-20.57,90.73a4.26,4.26,0,0,1-4.14,3.31h-2l-24.13.08-174.62.53-9.4,0a4.26,4.26,0,0,1-4.19-5.1l7.4-36.62L652.23,659a4.27,4.27,0,0,1,4.18-3.42H872.32A4.26,4.26,0,0,1,876.47,660.82Z"/><path class="cls-8" d="M452.37,251.14c-.39-16.8-20.77-33.22-20.77-33.22-69.83-23.77-82.29,22-89.24,46.36a36.76,36.76,0,0,0-1.42,13.18l-.52.25s.31.67.73,1.73a45.58,45.58,0,0,0,2.63,9.93c1,7.26-.06,16.09-8.94,20.9-17.43,9.44-21.31,29.47-21.34,29.67l.58.11a39.18,39.18,0,0,0-9,9.34c-13,19.05,0,43.58,0,43.58l113.84-18.24s2.49-2.72,5.62-6.91l.23.53c1-.42,24.23-10.59,24.23-28.31,0-13.76-12.37-29-18.15-35.3,1.17-10.1,9.83-16.8,13.22-21.77,4.25-6.23,3.67-16,3.67-16s.78,2.71,1.36,5.83S452.76,268,452.37,251.14ZM349,315.39c-4.55,12.39-21.09,14.54-34.25,24.13.8-3.4,5.38-20,20.62-28.23,7.95-4.3,10-11.58,9.83-18.31C348.49,300.78,351.93,307.49,349,315.39ZM447.83,340c0,15-18.19,24.68-22.58,26.81,4.16-5.69,9.18-13.7,11.19-21.44,3.67-14.2-.49-17.39-4.84-32.32a21.52,21.52,0,0,1-.88-6.72C436.63,313.07,447.83,327.41,447.83,340Z"/><path class="cls-10" d="M442.9,262.25s2.61,9.85,0,16.52,0,10.14,0,14.77-6.33,26.37-9.83,32.17-13.35,7.82-15.38,7.82-5.14,14.78-.54,22.31-.32,26.37-14.23,29-25.8,10.9-31-4.64,3.19-32.07,3.19-32.07,1.5-2.41,4.81-12.26,3.3-12.17,2.72-15.36-5.5-11.3-5.21-14.49l.29-3.18s-8.41.86-12.75-9.28,7.26-18,10.88-17.67,8.24,6.95,9.69,3.76.17-10.72,5.88-11.88,11.6-2.89,21.55-9.27,12.27-10.72,12.27-10.72-11.59,13.62-6.38,10.72,13-10.72,13-10.72S441.82,255.22,442.9,262.25Z"/><path class="cls-1" d="M434.61,298.11c-6.38,0-11.57-7.47-11.57-16.67,0-.6,0-1.2.07-1.78l0-.2-.13-.15a6.06,6.06,0,0,0-3.86-2.06l-.58,0a4.71,4.71,0,0,0-1.31.18l-.37.11v.38c0,.24,0,.49,0,.73,0,9.87-5.89,17.9-13.12,17.9-7,0-12.89-7.78-13.11-17.33v-.49h-9.26v-.16h9.26v-.49c.22-9.55,6.1-17.33,13.11-17.33,6.73,0,12.34,6.88,13,16l.05.59.56-.14a4.94,4.94,0,0,1,1.1-.12,4.26,4.26,0,0,1,.61,0,6.19,6.19,0,0,1,3.3,1.42l.69.59.13-.9c1.07-7.78,5.83-13.43,11.34-13.43,6.37,0,11.56,7.47,11.56,16.66S441,298.11,434.61,298.11Zm0-33.17c-6.29,0-11.41,7.4-11.41,16.5S428.32,298,434.61,298s11.4-7.4,11.4-16.51S440.89,264.94,434.61,264.94Zm-30.82-4.06c-7.15,0-13,8-13,17.74s5.81,17.74,13,17.74,13-8,13-17.74a2.26,2.26,0,0,0,0-.26c0-.41,0-.86-.05-1.3C416.12,268,410.45,260.88,403.79,260.88Z"/><path class="cls-16" d="M403.79,260.22c-7.37,0-13.38,7.94-13.61,17.82h-9.27v1.16h9.27c.23,9.88,6.24,17.82,13.61,17.82s13.62-8.25,13.62-18.4c0-.25,0-.5,0-.74a4.24,4.24,0,0,1,1.17-.16l.52,0a5.58,5.58,0,0,1,3.54,1.87c-.05.6-.07,1.21-.07,1.82,0,9.47,5.41,17.17,12.06,17.17s12.06-7.7,12.06-17.17-5.41-17.16-12.06-17.16c-5.86,0-10.75,6-11.84,13.86a6.6,6.6,0,0,0-3.56-1.54,5.41,5.41,0,0,0-1.88.1c-.71-9.25-6.51-16.48-13.54-16.48Zm0,35.64c-6.87,0-12.46-7.74-12.46-17.24s5.59-17.24,12.46-17.24c6.49,0,11.85,6.92,12.4,15.72,0,.43.05.86.05,1.3a1.7,1.7,0,0,1,0,.22c0,9.5-5.6,17.24-12.46,17.24Zm30.82,1.59c-6,0-10.91-7.18-10.91-16s4.9-16,10.91-16,10.9,7.18,10.9,16-4.89,16-10.9,16Z"/><path class="cls-11" d="M419.5,303.25A.61.61,0,0,1,419,303a.59.59,0,0,1,.22-.79c1.38-.78,3.56-2.43,3.56-3.56,0-.72-.57-1.17-1.49-1.85a6.49,6.49,0,0,1-2.07-2.07c-1.24-2.3,1.78-4.56,1.91-4.66a.58.58,0,0,1,.81.13.59.59,0,0,1-.12.81s-2.33,1.77-1.58,3.17a5.59,5.59,0,0,0,1.73,1.69c1,.7,2,1.43,2,2.78,0,2.16-3.71,4.33-4.14,4.57A.55.55,0,0,1,419.5,303.25Z"/><path class="cls-11" d="M418.38,315.39a15.33,15.33,0,0,1-3-.27,15.54,15.54,0,0,1-7.24-3.33.59.59,0,0,1,0-.82.57.57,0,0,1,.82,0,14.6,14.6,0,0,0,6.67,3,18.83,18.83,0,0,0,8.68-.7.58.58,0,0,1,.39,1.09A20.84,20.84,0,0,1,418.38,315.39Z"/><path class="cls-8" d="M407.84,279.2c0,2.08-1.16,3.77-2.6,3.77s-2.61-1.69-2.61-3.77,1.16-3.77,2.61-3.77S407.84,277.12,407.84,279.2Z"/><path class="cls-8" d="M436.82,281.23c0,2.08-1.17,3.77-2.61,3.77s-2.61-1.69-2.61-3.77,1.17-3.77,2.61-3.77S436.82,279.15,436.82,281.23Z"/><path class="cls-8" d="M402.25,272.19c.13-.55.81-.88,1.25-1.15a1.81,1.81,0,0,1,1.83-.3c1,.55,1.86-1,.88-1.5a3.36,3.36,0,0,0-3.33.15c-.94.51-2.05,1.22-2.3,2.34s1.43,1.55,1.67.46Z"/><path class="cls-8" d="M434.43,272.62a3,3,0,0,1,3.51,1.81c.45,1,1.95.14,1.5-.88a4.74,4.74,0,0,0-5.47-2.61.87.87,0,0,0,.46,1.68Z"/><path class="cls-11" d="M417.69,333.53s-16.9-2.41-22.31-5.7L390,324.55s15.07,21.63,17.87,24.53S417.69,333.53,417.69,333.53Z"/><path class="cls-5" d="M352.21,237S340.44,217.92,364,207.48s54,1.16,63,1.45,8.69,10.14,7.24,12.75-37.38.58-48.39,2.9S354,240.94,352.21,237Z"/><path class="cls-9" d="M410.45,817.91s-1.74,25.12-6,30.14-6.57,11.4-2.51,16,11.59,5.61,15.07,11.21,6.18,12.94,11.78,16.61,16.42,3.67,14.1,1.55a44.54,44.54,0,0,1-7.34-8.5c-1.54-2.71-7.14-20.87-9.08-25.12s-2.89-5.41-2.89-9.46,4.83-27,4.83-27Z"/><path class="cls-17" d="M437.3,656s-12,31.69-15.45,56.41-7.34,64.14-8.89,76.88a223.9,223.9,0,0,1-3.87,22.53s20.1,4.52,22,2.39,21.64-83,21.64-83L446.69,656Z"/><path class="cls-18" d="M407.75,807.29s24.34,0,25.11,7-1.74,12-3.67,12.17-24.73-3-24.73-5.17S406.2,807.27,407.75,807.29Z"/><rect class="cls-19" x="357.71" y="733.69" width="102.74" height="20.48"/><rect class="cls-19" x="346.51" y="821.24" width="118.46" height="22.94"/><path class="cls-2" d="M473,656H341.29a16.8,16.8,0,0,1-16.8-16.8h0a16.81,16.81,0,0,1,16.8-16.81H473a16.82,16.82,0,0,1,16.81,16.81h0A16.81,16.81,0,0,1,473,656Z"/><path class="cls-20" d="M369.88,656,349.14,913.12a4.63,4.63,0,0,1-4.62,4.26H338a4.64,4.64,0,0,1-4.64-4.8L342.71,656Z"/><path class="cls-20" d="M446.69,656l20.75,257.09a4.62,4.62,0,0,0,4.62,4.26h6.56a4.63,4.63,0,0,0,4.63-4.8L473.86,656Z"/><path class="cls-10" d="M474.2,814.24s-1,14.49-3.09,24S459.9,856,460.48,861.77s9.28,5,12.37,9.27,6.76,20.47,7.72,28-1.16,7.15,3.48,11.59,14.49,8.69,14.49,5.79-4.06-6.18-5.8-9.46-1-37.28-2.51-44.63-3.09-13.13-2.32-22,2.32-24,2.32-24Z"/><path class="cls-8" d="M437.54,622.42h28.54s-2.31,55.06,0,95.62,7.54,89.25,7.54,89.25h16.8s17.93-95.62,21.14-125.18,9-91.55,5.52-96.48-21.62-13-21.62-13-37.7-2.88-52.37,13S437.54,622.42,437.54,622.42Z"/><ellipse class="cls-21" cx="553.4" cy="489.13" rx="24.34" ry="54.28" transform="translate(39.68 1019.79) rotate(-87.4)"/><path class="cls-8" d="M540.26,476.38c0,1.82-4,3.29-8.88,3.29s-8.89-1.47-8.89-3.29,4-3.28,8.89-3.28S540.26,474.57,540.26,476.38Z"/><ellipse class="cls-13" cx="519.88" cy="489.19" rx="9.76" ry="4.5"/><path class="cls-13" d="M555.91,498.56c0,2.69-3.78,4.87-8.44,4.87s-8.45-2.18-8.45-4.87,3.78-4.87,8.45-4.87S555.91,495.87,555.91,498.56Z"/><path class="cls-8" d="M555.14,472.13c0,1-1.72,1.74-3.84,1.74s-3.83-.78-3.83-1.74,1.71-1.74,3.83-1.74S555.14,471.17,555.14,472.13Z"/><path class="cls-9" d="M554.35,514.22a31.08,31.08,0,0,1-10.7,6.21c-5.87,1.73-16.57,7.25-19,7.08s-11,3.26-14.3,4.63c1.93-1.37.29-10.87-.37-14.29a2.79,2.79,0,0,0-1.14-1.86,8.09,8.09,0,0,0,1.14,0c6.73-.69,4.66-2.82,8.12-5.9s7.24-1.06,11.39,0S554.35,514.22,554.35,514.22Z"/><path class="cls-1" d="M510.54,533.14l-.41.18a.43.43,0,0,0-.17.06c-4.73,1.42-61.93,4.14-66.87-10.49-5-14.82-4-78,0-84.37s19.71-7.73,19.71-7.73S470.23,503,472.12,505c1.52,1.56,20.39,7.63,31.59,9.53h0a35.41,35.41,0,0,0,5.13.56,3.15,3.15,0,0,1,1.28,2.08C510.86,521,512.7,531.61,510.54,533.14Z"/><path class="cls-7" d="M397,205.46s-2.32-4.64,0-6.52,13.62-2,15.21,1.44,1.45,4.63,0,5.79S398.74,207.38,397,205.46Z"/><path class="cls-13" d="M467.44,437.75c-.78,1.54-26.66,16.22-26.66,16.22s-1,0-2.78-.1c-10-.46-44.27-2.8-59-13.53-17.39-12.64-23.57-75.23-23.57-75.23s22.79-2.7,32.06,4.64,12.75,11.59,15.46,10.43,29.48-8.69,29.48-8.69,21.51,12.17,26.92,24.15S468.21,436.2,467.44,437.75Z"/><path class="cls-21" d="M467.44,437.75c-.78,1.54-26.66,16.22-26.66,16.22s-1,0-2.78-.1c-7.31-13.66-8-34.54-3.48-46.25,0,0,2.78,16.22,10.12,22.4S459.32,445.09,467.44,437.75Z"/><path class="cls-22" d="M534.67,496.08c-.38.92-.81,1.88-1.32,2.85C527,511.3,514.81,513.11,508,503.8c0,0,.58-10.47,6-14.72,3.28-2.57,7.68-3.52,11.47-4.46a18.28,18.28,0,0,0,6.11-2.3c3.67-2.7,4.06-4.64,4.06-4.64S539.11,485.22,534.67,496.08Z"/><path class="cls-13" d="M357,452.23h0a12.27,12.27,0,0,1-.75,1.54C349.6,465.08,333.86,470,333.86,470V470l.38-10.3v-.08s-10.7-1.83-21.46-4.83h0c-7.62-2.12-12.9-4.06-16.68-6.76a18.43,18.43,0,0,1-3.95-3.77c-3.79-4.92,10.54-52.45,18.94-61.72s39.12-15.36,39.12-15.36,2,8.41,4.64,21.73C357.31,401.65,362.48,439.18,357,452.23Z"/><path class="cls-21" d="M357,452.24a12.27,12.27,0,0,1-.75,1.54C349.6,465.08,333.86,470,333.86,470l.38-10.44s3.19,4.05,4.64-2.61c1.38-6.34,2.49-21.07,2.6-22.49C341.4,436.84,340.34,475.19,357,452.24Z"/><path class="cls-23" d="M396.35,362.41l6.57,17.77s-4.08.39-18.65-12.36S396.35,362.41,396.35,362.41Z"/><polygon class="cls-23" points="412.93 362.81 402.92 380.18 423 374.16 412.93 362.81"/><path class="cls-22" d="M469.56,802.46s8.5,3.86,13.33,2.51,9.27-3.29,9.85.29,1.74,11.5,0,13.62-20.67,4.44-23.18-1S466.06,802.91,469.56,802.46Z"/><path class="cls-5" d="M495.46,572.59c-1.37,1.93-26.48,5.4-38.84,18.54-7.33,7.79-12.68,17.36-15.82,23.85-2.14,4.44-3.26,7.44-3.26,7.44H362.26s-38.93-3.86-40.09-42.11S330.89,471.13,333.86,470s21-8.63,23.17-26.48a118.55,118.55,0,0,0,.14-18.53c-1.15-22.36-5.47-52.66-7-57.87,0,0,2-2.89,5.22-2s3.15-.58,4,3.18,5.23,47.54,15.08,50.28,49,2.46,51.58-2.18,0-32.74,0-38.24v-5.51s5.93-2.9,6.3-1.16,2.39,45.78,3.26,51,10.43,14,12.17,17.85,7.24,23.68,7.24,34.11-6.56,39-5.4,49.84,30.13,22.41,37.86,30.13,8.88,9.28,7.34,11.59-5,2.32-5,2.32S496.82,570.65,495.46,572.59Z"/><path class="cls-4" d="M371.91,455.81s-2.61-7.53,2.61-7.53,1.45,9,4.06,11,6.66,7.26,4.92,10.73-4.92,1.44-9.56,5.78-13.33-1.13-10.43-5.78,3.48-3.93.87-7.19,2.61-5.86,5.5-4.12S371.91,455.81,371.91,455.81Z"/><path class="cls-13" d="M432.4,437s-14-3.86-13.26,0,5.41,2.71,4.45,5.61.77,6.76,5,5.7a15.37,15.37,0,0,0,7.15-4.54s2.12-1,1.74-4.06S432.4,437,432.4,437Z"/><path class="cls-13" d="M415.28,440.84s3.8-1.64,3.83,1S414.51,443.93,415.28,440.84Z"/><path class="cls-13" d="M362.93,548.84s-18.55,5.58-17.49,11.77,7,3.47,11.58,0,14,2.91,16.41-2S367.71,547.16,362.93,548.84Z"/><path class="cls-4" d="M385.53,574.52s-9.27.77-6.57,6.56,3.09.39,16.23,3.09,18.45,1.94,13.67-4.83S385.53,574.52,385.53,574.52Z"/><path class="cls-13" d="M366.6,579.94s7.73-2,3.48-2.33S364.28,573.78,366.6,579.94Z"/><path class="cls-4" d="M394.53,490.65c2.94.5,11,4.5,22.62,3s13.05-5.77,15.25-3,5.16,32,8.7,38.6,2,10.11-1.87,11.27-27,5.28-32.06,8.05-8.28,2.91-12.64-3.93-9.12-26.21-10.61-36.22-1.61-18.41,0-18.65S392.77,490.36,394.53,490.65Z"/><path class="cls-1" d="M355.4,365.11s15.84-18.54,19.7-17,22.41,12.75,21.25,14.3S374.84,379,373.43,377.48,353.58,367.19,355.4,365.11Z"/><path class="cls-1" d="M412.93,362.81l8.53,17s14.92-4.25,10.94-8.31-14.53-15.65-15.25-15.65S412.93,362.81,412.93,362.81Z"/><path class="cls-8" d="M432.79,536.3l76.47-34.53a2.65,2.65,0,0,1,3.46,1.23h0a2.66,2.66,0,0,1-1.18,3.55l-75.09,37.81a2.64,2.64,0,0,1-3.63-1.34l-1.38-3.28A2.67,2.67,0,0,1,432.79,536.3Z"/><path class="cls-13" d="M534.67,496.08c-1.18-.55-2.33-1.27-3.29-.79-2.69,1.35-1.57-1.35,1.83-5.5s-3.57-.6-10.72-.07c-6.19.46-.5-1.21,3-5.1a18.28,18.28,0,0,0,6.11-2.3c3.67-2.7,4.06-4.64,4.06-4.64S539.11,485.22,534.67,496.08Z"/><path class="cls-24" d="M440.8,615c-2.14,4.44-3.26,7.44-3.26,7.44H362.26s-38.93-3.86-40.09-42.11S330.89,471.13,333.86,470s21-8.63,23.17-26.48a118.55,118.55,0,0,0,.14-18.53l.55-.43s7.46,32.05-.69,45.81,30,37,51,38,28.83,0,28.83,0L439.43,528s-64.39,16.63-61,39.83S440.8,615,440.8,615Z"/><path class="cls-10" d="M428.33,511.73s8.63.69,12.11-1.63c9.2-6.13,27.41,5.69,29.12,15.54,1.16,6.67-.58,10.72-2,11s-9.3,1.45-9.27,0-1.11-6.59-4.9-5.76-10.89.11-13.93-2.86-11.1-2.53-11.1-2.53Z"/><path class="cls-1" d="M431,528c-2.31,4.13-70.7,6.59-93.59,4.57s-37.38-3.77-43.17-19.13c-5.22-13.83.6-57,1.81-65.48,3.78,2.7,9.06,4.64,16.68,6.76h0a107.47,107.47,0,0,0,21.46,4.83v.08c0,.66-.27,5-.38,10.3V470c-.18,9.1,0,21.11,2.12,22.88,3.48,2.9,89.25,13.91,93,16.52S433.34,523.9,431,528Z"/><path class="cls-25" d="M460.1,550.18s13.52,4.63,20.09,8.88a33.41,33.41,0,0,1,9.66,9.27s-4.64-11.2-14.88-16.61S460.1,550.18,460.1,550.18Z"/><path class="cls-2" d="M897,266,810.65,614.89a4.62,4.62,0,0,1-4.5,3.52H559.23a4.63,4.63,0,0,1-4.52-5.67l80.4-348.93a4.63,4.63,0,0,1,4.51-3.59h252.9A4.63,4.63,0,0,1,897,266Z"/><g class="cls-26"><path class="cls-19" d="M688.16,334.69,632.65,618.41h55.51L745.8,337Zm-14,262H653.32l42.61-240.84L723,357.39Z"/></g><g class="cls-26"><path class="cls-19" d="M750.63,337,731.32,618.41h74.83L806.31,337Zm34.81,267.49H750.63L762.84,360.3h22.6Z"/></g><path class="cls-20" d="M802,228.73H734.88a7,7,0,0,1-7-6.95h0a7,7,0,0,1,7-7H802a7,7,0,0,1,7,7h0A7,7,0,0,1,802,228.73Z"/><rect class="cls-19" x="664.09" y="324.55" width="163.43" height="20.28" rx="10"/><rect class="cls-19" x="616.76" y="685.01" width="182.19" height="17.39"/><path class="cls-3" d="M639.62,260.22a4.63,4.63,0,0,0-4.51,3.59l-80.4,348.93a4.63,4.63,0,0,0,4.52,5.67H544.9a4.62,4.62,0,0,1-4.51-5.67l80.39-348.93a4.64,4.64,0,0,1,4.52-3.59Z"/><path class="cls-19" d="M779.06,206,680.68,685.2l-15.07-.38L765.43,203.2c.54-2.64,2.5-4.49,4.71-4.43l4.5.11C777.64,199,779.8,202.43,779.06,206Z"/><path class="cls-20" d="M695.8,326.18,578.51,917.38H565.18L681.24,323.72a6.37,6.37,0,0,1,6.26-5.15h2A6.36,6.36,0,0,1,695.8,326.18Z"/><path class="cls-20" d="M798.49,328.61l.86,588.77h14.78l-3.45-588.8a4.06,4.06,0,0,0-4.06-4h-4.07A4.06,4.06,0,0,0,798.49,328.61Z"/><polygon class="cls-19" points="798.95 644.49 632.65 644.49 637.91 617.98 798.95 617.98 798.95 644.49"/><g class="cls-26"><polygon class="cls-19" points="669.88 344.83 613.33 618.41 623.63 618.41 677.11 344.83 669.88 344.83"/></g><g class="cls-26"><polygon class="cls-19" points="731.31 324.55 744.45 260.22 753.85 260.22 740.26 324.63 731.31 324.55"/></g><path class="cls-20" d="M753.84,318.18l-34.28,599.2H702l38.71-599.73c.18-2.85,3.07-5.08,6.57-5.08h0C751,312.57,754,315.13,753.84,318.18Z"/><g class="cls-27"><rect class="cls-28" x="203.92" y="917.38" width="690.18" height="14.83" rx="7.41"/><path class="cls-28" d="M612.12,956.79H265.88a4.64,4.64,0,0,1-4.64-4.64h0a4.63,4.63,0,0,1,4.64-4.63H612.12a4.63,4.63,0,0,1,4.64,4.63h0A4.64,4.64,0,0,1,612.12,956.79Z"/><path class="cls-28" d="M809.49,956.79H653.56a4.64,4.64,0,0,1-4.64-4.64h0a4.63,4.63,0,0,1,4.64-4.63H809.49a4.63,4.63,0,0,1,4.64,4.63h0A4.64,4.64,0,0,1,809.49,956.79Z"/></g><path class="cls-5" d="M240.13,913.42s-44.1,5.14-47.19-21.71S214,870.07,223.07,877,238.45,903.44,240.13,913.42Z"/><path class="cls-7" d="M243.84,918a.56.56,0,0,1-.48-.25c-11.16-16.16-26.59-23.06-31.66-25.33-1.65-.74-1.93-.88-2.09-1.19a.58.58,0,0,1,1-.63c.19.12.88.43,1.61.76,5.14,2.3,20.79,9.3,32.13,25.73a.57.57,0,0,1-.47.91Z"/><path class="cls-5" d="M266.58,913.42s44.11,5.14,47.2-21.71S292.72,870.07,283.64,877,268.27,903.44,266.58,913.42Z"/><path class="cls-7" d="M262.87,918a.56.56,0,0,0,.48-.25c11.17-16.16,26.59-23.06,31.66-25.33,1.66-.74,1.94-.88,2.09-1.19a.58.58,0,0,0-1-.63c-.18.12-.88.43-1.61.76-5.14,2.3-20.78,9.3-32.13,25.73a.58.58,0,0,0,.15.81A.55.55,0,0,0,262.87,918Z"/><path class="cls-7" d="M222,779.67s-15.83-18.16-24.81-12.37-3.19,12.75,5.79,18S222,779.67,222,779.67Z"/><path class="cls-6" d="M229.7,793.61s-11-18.48-22.36-11S215.56,802.23,229.7,793.61Z"/><path class="cls-7" d="M234.57,807.29s-14.17-12.56-18.84-5.8S234.57,807.29,234.57,807.29Z"/><path class="cls-6" d="M220.4,776.43s-17.13-3.33-21.76-19.56,1.77-14.78,8.7-9.56S220.4,776.43,220.4,776.43Z"/><path class="cls-6" d="M223.86,780.85S220.78,761.8,229.7,758,223.86,780.85,223.86,780.85Z"/><path class="cls-7" d="M231,799.49s-7.4-23.2,4.77-29S231,799.49,231,799.49Z"/><path class="cls-5" d="M222,777s-17-32.93-8.88-41.62S222,777,222,777Z"/><path class="cls-7" d="M252.82,900.88a.57.57,0,0,1-.58-.55c0-.34-1.54-33.93-9.54-66.24S216,767.92,215.8,767.58a.58.58,0,0,1,1-.56c.19.34,19,34.35,27,66.79s9.57,66.13,9.58,66.47a.57.57,0,0,1-.55.6Z"/><path class="cls-7" d="M252.53,907s-7.24-38,0-66.94,9.85-32.74,9.85-32.74-7.27,41.44-6.53,62,6.53,41.15,6.53,41.15Z"/><path class="cls-4" d="M270.79,917.38s-4.93-32.72,16.8-65.47,33.61-40.06,33.61-40.06S285,826.7,273.1,846.7s-18,70.68-18,70.68Z"/><path class="cls-6" d="M260.06,917.38s-5.21-44-28.68-82.56-68.1-67.52-68.1-67.52,27.82,18.11,53.61,65.42,32.45,74.83,32.45,74.83S233.12,863.79,220.66,849s-36.51-16.3-36.51-16.3,19,.93,38.83,29.62,20.86,55,20.86,55Z"/><path class="cls-5" d="M874,908.19S831,897,837.86,870.86s27.46-12.54,33.41-2.77S876,898.29,874,908.19Z"/><path class="cls-7" d="M875.79,913.77a.56.56,0,0,1-.35-.41c-4.55-19.11-16.43-31.13-20.33-35.08-1.28-1.29-1.49-1.51-1.52-1.86a.57.57,0,0,1,.52-.63.57.57,0,0,1,.6.39c.13.18.66.72,1.22,1.29,4,4,16,16.2,20.63,35.63a.56.56,0,0,1-.43.69A.57.57,0,0,1,875.79,913.77Z"/><path class="cls-5" d="M908,796s15.83-18.17,24.81-12.37,3.19,12.75-5.79,18S908,796,908,796Z"/><path class="cls-6" d="M900.28,810s11-18.48,22.36-10.94S914.42,818.58,900.28,810Z"/><path class="cls-6" d="M895.41,823.64s14.17-12.56,18.84-5.8S895.41,823.64,895.41,823.64Z"/><path class="cls-6" d="M909.58,792.77s17.13-3.32,21.77-19.55-1.78-14.78-8.71-9.56S909.58,792.77,909.58,792.77Z"/><path class="cls-6" d="M906.12,797.2s3.08-19.06-5.84-22.82S906.12,797.2,906.12,797.2Z"/><path class="cls-5" d="M899,815.84s7.4-23.21-4.77-29S899,815.84,899,815.84Z"/><path class="cls-5" d="M908,793.39s17-32.93,8.88-41.62S908,793.39,908,793.39Z"/><path class="cls-7" d="M877.16,917.23a.57.57,0,0,0,.58-.55c0-.34,1.54-33.94,9.54-66.25s26.71-66.16,26.9-66.5a.58.58,0,1,0-1-.56c-.19.34-19,34.34-27,66.79s-9.56,66.13-9.58,66.47a.58.58,0,0,0,.55.6Z"/><path class="cls-5" d="M915.6,868.14s-22.79,21.44-26.27,32.74-3.48,16.5-3.48,16.5h-9.27s2.32-25.84,13.91-36.57A51.61,51.61,0,0,1,915.6,868.14Z"/><path class="cls-7" d="M849.92,821.78a75,75,0,0,1,26.66,34.38c8.5,22.8,5.8,61.22,5.8,61.22h-5.8S880.83,853.85,849.92,821.78Z"/><path class="cls-6" d="M871.56,917.38s6.83-40,22.54-67.4,45.46-35.93,45.46-35.93-29,18.55-41,44.82-16.22,58.51-16.22,58.51Z"/><rect class="cls-21" x="632.99" y="885.24" width="22.31" height="32.15" rx="5"/><rect class="cls-8" x="639.36" y="879.63" width="9.76" height="5.6" rx="2"/><rect class="cls-13" x="634.15" y="898.18" width="14.2" height="10.43" rx="3"/><rect class="cls-5" x="358.73" y="890.01" width="19" height="27.38" rx="5"/><rect class="cls-8" x="364.16" y="885.24" width="8.31" height="4.77" rx="2"/><rect class="cls-6" x="359.72" y="901.03" width="12.09" height="8.88" rx="3"/><rect class="cls-6" x="316.71" y="873.47" width="30.48" height="43.92" rx="5"/><rect class="cls-5" x="325.42" y="865.81" width="13.33" height="7.65" rx="2"/><rect class="cls-4" x="318.3" y="891.15" width="19.4" height="14.25" rx="3"/><path class="cls-13" d="M616.57,821.24c-5-2.27-5.22-6-6.18-15.09s-5-37.11-41.36-27.22S538.1,832.8,538.36,833.8c4.28,16.47,71.26,18.5,80.72,10.58S621.59,823.52,616.57,821.24Zm-31,23.45a15.92,15.92,0,1,1,15.92-15.92A15.92,15.92,0,0,1,585.59,844.69Z"/><circle class="cls-11" cx="553.41" cy="820.98" r="8.12"/><circle class="cls-11" cx="564.53" cy="801.04" r="5.14"/><path class="cls-11" d="M587.88,789.47a5.75,5.75,0,1,1-5.75-5.75A5.75,5.75,0,0,1,587.88,789.47Z"/><circle class="cls-11" cx="601.4" cy="808.35" r="5.89"/><path class="cls-2" d="M534.3,913.05l-12.68-73.14a5.22,5.22,0,0,1,5.14-6.11h94.51a5.22,5.22,0,0,1,5.09,6.35l-16.23,73a5.22,5.22,0,0,1-5.08,4.09l-65.6.13A5.21,5.21,0,0,1,534.3,913.05Z"/><path class="cls-20" d="M552.05,848.63a2.71,2.71,0,1,1-2.71-2.71A2.7,2.7,0,0,1,552.05,848.63Z"/><path class="cls-20" d="M603.63,848.63a2.71,2.71,0,1,1-2.71-2.71A2.71,2.71,0,0,1,603.63,848.63Z"/><path class="cls-20" d="M576.19,883c-10.91,0-19.12-6-23.74-17.26a54.94,54.94,0,0,1-3.69-17.11.59.59,0,0,1,.57-.59.59.59,0,0,1,.59.57,53.39,53.39,0,0,0,3.62,16.72c4.48,11,12.11,16.52,22.65,16.52,6.39,0,11.64-2.1,15.6-6.22,9.14-9.51,8.56-26.81,8.55-27a.58.58,0,0,1,1.16,0c0,.73.61,18-8.87,27.83C588.44,880.8,582.91,883,576.19,883Z"/><path class="cls-8" d="M535.34,833.8l1.06-27.48a24.26,24.26,0,0,0-5.41,0c-1.74.39-2.9,3.1-2.9,3.1l3.29,24.38Z"/><path class="cls-22" d="M524.81,805.17s-7.89-6.77-3.27-14.3a12.47,12.47,0,0,0,0-13.72,17,17,0,0,1,6.55,6l2.71,4.25v-3.47s5,1.35,7,9.27-1.35,13.13-1.35,13.13-6.95,4.25-8.31,3.1A25.18,25.18,0,0,1,524.81,805.17Z"/><path class="cls-8" d="M551.08,833.8s1-32.11,0-38.49,0-9.66,3.87-9.46,6.37-.4,6.95.86-3.28,47.09-3.28,47.09Z"/><path class="cls-5" d="M548.38,791.26s-12-5.8-6.57-16.23,7.53-15.84,4.83-19.9a21.63,21.63,0,0,0-7.34-6.37s5.1-3.29,11.43,2.51l6.34,5.79-1.93-3.86s10.24-.19,13.71,13.52-5.09,24-6.89,24.54S553.33,795.05,548.38,791.26Z"/></g></svg>